<?xml version="1.0" encoding="utf-8" standalone="no"?>
<!DOCTYPE svg PUBLIC "-//W3C//DTD SVG 1.1//EN"
  "http://www.w3.org/Graphics/SVG/1.1/DTD/svg11.dtd">
<!-- Created with matplotlib (https://matplotlib.org/) -->
<svg height="345.6pt" version="1.1" viewBox="0 0 460.8 345.6" width="460.8pt" xmlns="http://www.w3.org/2000/svg" xmlns:xlink="http://www.w3.org/1999/xlink">
 <metadata>
  <rdf:RDF xmlns:cc="http://creativecommons.org/ns#" xmlns:dc="http://purl.org/dc/elements/1.1/" xmlns:rdf="http://www.w3.org/1999/02/22-rdf-syntax-ns#">
   <cc:Work>
    <dc:type rdf:resource="http://purl.org/dc/dcmitype/StillImage"/>
    <dc:date>2022-04-20T03:13:02.977429</dc:date>
    <dc:format>image/svg+xml</dc:format>
    <dc:creator>
     <cc:Agent>
      <dc:title>Matplotlib v3.3.1, https://matplotlib.org/</dc:title>
     </cc:Agent>
    </dc:creator>
   </cc:Work>
  </rdf:RDF>
 </metadata>
 <defs>
  <style type="text/css">*{stroke-linecap:butt;stroke-linejoin:round;}</style>
 </defs>
 <g id="figure_1">
  <g id="patch_1">
   <path d="M 0 345.6 
L 460.8 345.6 
L 460.8 0 
L 0 0 
z
" style="fill:#ffffff;"/>
  </g>
  <g id="axes_1">
   <g id="patch_2">
    <path d="M 57.6 162.432 
L 414.72 162.432 
L 414.72 41.472 
L 57.6 41.472 
z
" style="fill:#ffffff;"/>
   </g>
   <g id="matplotlib.axis_1"/>
   <g id="matplotlib.axis_2"/>
   <g id="line2d_1">
    <path clip-path="url(#pda55173f55)" d="M 57.6 47.38685 
L 59.3856 114.45555 
L 61.1712 73.699833 
L 62.9568 42.711206 
L 64.7424 85.999574 
L 66.528 54.414587 
L 68.3136 171.974842 
L 70.0992 62.618354 
L 71.438934 -1 
M 72.991556 -1 
L 73.6704 11.986345 
L 75.456 106.171657 
L 77.2416 13.167262 
L 79.0272 104.075653 
L 80.8128 93.753954 
L 82.5984 94.689104 
L 84.384 80.119447 
L 86.1696 131.07018 
L 87.9552 188.500364 
L 89.7408 88.098425 
L 91.5264 44.938356 
L 93.312 171.771368 
L 95.0976 112.937986 
L 96.8832 112.732271 
L 98.6688 108.100558 
L 100.4544 52.392699 
L 102.24 70.823586 
L 104.0256 20.838205 
L 105.8112 206.140739 
L 107.5968 73.801553 
L 109.3824 42.485857 
L 111.168 107.580329 
L 112.9536 195.169865 
L 114.7392 233.149046 
L 116.5248 80.872467 
L 118.3104 87.747853 
L 120.096 101.310388 
L 121.8816 65.399022 
L 123.6672 180.012243 
L 125.4528 4.899681 
L 127.2384 185.443433 
L 129.024 93.349048 
L 130.8096 11.696885 
L 132.5952 135.093184 
L 134.3808 115.067331 
L 137.952 7.910436 
L 139.7376 73.013281 
L 141.5232 126.890776 
L 143.3088 134.72597 
L 145.0944 57.803843 
L 146.88 58.906959 
L 148.6656 139.397104 
L 150.4512 21.677693 
L 152.2368 114.380756 
L 154.0224 20.345827 
L 155.808 78.102159 
L 157.5936 186.564612 
L 159.3792 15.81615 
L 161.1648 57.434594 
L 162.9504 12.887298 
L 164.736 96.51512 
L 166.5216 143.800353 
L 168.3072 106.471225 
L 170.0928 120.816869 
L 171.8784 71.373774 
L 173.664 103.10895 
L 175.4496 68.282369 
L 177.2352 106.265137 
L 179.0208 56.192579 
L 180.8064 78.85833 
L 182.592 43.933556 
L 184.3776 176.941369 
L 186.1632 133.699075 
L 187.9488 127.967775 
L 189.7344 132.776821 
L 191.52 20.487075 
L 193.3056 119.751076 
L 195.0912 157.40333 
L 196.8768 92.774624 
L 198.6624 10.456651 
L 200.448 131.100501 
L 202.2336 210.107461 
L 204.0192 67.638235 
L 205.8048 115.816169 
L 207.5904 55.228561 
L 209.376 112.486253 
L 211.1616 216.524433 
L 212.9472 183.200439 
L 214.7328 172.552722 
L 216.5184 239.974978 
L 218.304 103.08102 
L 220.0896 62.49673 
L 221.8752 61.094998 
L 223.6608 128.809589 
L 225.4464 165.10233 
L 227.232 65.63635 
L 229.0176 118.696918 
L 230.8032 133.857099 
L 232.5888 179.470194 
L 234.3744 82.277904 
L 236.16 190.878988 
L 237.9456 88.097696 
L 239.7312 160.941236 
L 241.5168 25.959868 
L 243.3024 138.145286 
L 245.088 67.786937 
L 246.8736 161.180075 
L 248.6592 29.15748 
L 250.4448 124.171416 
L 252.2304 94.315077 
L 254.016 133.259158 
L 255.8016 115.575587 
L 257.5872 72.198266 
L 259.3728 127.280139 
L 261.1584 158.472815 
L 262.944 172.41584 
L 264.7296 191.381817 
L 266.5152 60.539874 
L 267.78374 -1 
M 269.477184 -1 
L 271.872 51.902085 
L 273.6576 173.926123 
L 275.4432 148.691137 
L 277.2288 208.503004 
L 279.0144 141.60367 
L 280.8 123.060384 
L 282.5856 83.726063 
L 284.113507 -1 
M 284.508542 -1 
L 286.1568 170.492727 
L 287.9424 58.880819 
L 289.728 199.768661 
L 291.5136 37.308823 
L 293.2992 112.808651 
L 295.0848 51.638376 
L 296.8704 99.638126 
L 298.656 41.176026 
L 300.4416 162.211457 
L 302.2272 216.449307 
L 304.0128 112.626593 
L 305.7984 158.467616 
L 307.584 179.831357 
L 309.3696 212.712149 
L 311.1552 129.774517 
L 312.9408 131.261056 
L 314.7264 16.103427 
L 316.512 138.383307 
L 318.2976 121.141948 
L 320.0832 72.174535 
L 321.8688 103.119943 
L 323.6544 236.271361 
L 325.44 139.80287 
L 327.2256 110.602737 
L 329.0112 47.198977 
L 330.7968 129.794918 
L 332.5824 52.846654 
L 334.368 94.751218 
L 336.1536 118.350702 
L 337.9392 159.898957 
L 339.7248 102.768406 
L 341.5104 1.573157 
L 343.296 71.454512 
L 345.0816 87.175269 
L 346.8672 153.025957 
L 348.6528 63.324003 
L 350.4384 117.756936 
L 352.224 62.566588 
L 354.0096 121.842013 
L 355.7952 197.603607 
L 357.498222 -1 
M 357.657242 -1 
L 359.3664 214.317915 
L 361.152 74.128105 
L 362.9376 30.90582 
L 364.7232 142.790434 
L 366.5088 96.013273 
L 368.2944 125.599558 
L 370.08 83.190181 
L 371.8656 145.00089 
L 373.6512 96.24335 
L 375.4368 41.557443 
L 377.2224 24.030979 
L 379.008 95.589372 
L 380.7936 215.679273 
L 382.5792 83.458077 
L 384.3648 83.41499 
L 386.1504 107.932529 
L 387.936 77.862651 
L 389.7216 90.880167 
L 391.5072 200.889029 
L 393.2928 144.78398 
L 395.0784 80.843753 
L 396.864 237.868708 
L 398.6496 142.691848 
L 400.4352 72.930876 
L 402.2208 218.79886 
L 404.0064 92.329268 
L 405.792 109.113254 
L 407.5776 229.50854 
L 409.3632 57.789663 
L 411.1488 29.663446 
L 412.9344 112.532486 
L 412.9344 112.532486 
" style="fill:none;stroke:#1f77b4;stroke-linecap:square;stroke-width:1.5;"/>
   </g>
   <g id="patch_3">
    <path d="M 57.6 162.432 
L 57.6 41.472 
" style="fill:none;stroke:#000000;stroke-linecap:square;stroke-linejoin:miter;stroke-width:0.8;"/>
   </g>
   <g id="patch_4">
    <path d="M 414.72 162.432 
L 414.72 41.472 
" style="fill:none;stroke:#000000;stroke-linecap:square;stroke-linejoin:miter;stroke-width:0.8;"/>
   </g>
   <g id="patch_5">
    <path d="M 57.6 162.432 
L 414.72 162.432 
" style="fill:none;stroke:#000000;stroke-linecap:square;stroke-linejoin:miter;stroke-width:0.8;"/>
   </g>
   <g id="patch_6">
    <path d="M 57.6 41.472 
L 414.72 41.472 
" style="fill:none;stroke:#000000;stroke-linecap:square;stroke-linejoin:miter;stroke-width:0.8;"/>
   </g>
  </g>
  <g id="axes_2">
   <g id="patch_7">
    <path d="M 57.6 307.584 
L 414.72 307.584 
L 414.72 186.624 
L 57.6 186.624 
z
" style="fill:#ffffff;"/>
   </g>
   <g id="matplotlib.axis_3"/>
   <g id="matplotlib.axis_4"/>
   <g id="line2d_2">
    <path clip-path="url(#p7ab77fb8c7)" d="M 57.6 192.625183 
L 59.3856 269.443709 
L 61.1712 224.935402 
L 62.9568 186.624 
L 64.7424 228.258857 
L 66.528 201.004312 
L 68.3136 307.584 
L 70.0992 210.050685 
L 71.8848 186.624 
L 73.6704 186.624 
L 75.456 261.355502 
L 77.2416 186.624 
L 79.0272 229.236481 
L 80.8128 210.654481 
L 82.5984 228.694993 
L 84.384 236.802026 
L 86.1696 294.802101 
L 87.9552 307.584 
L 89.7408 243.466447 
L 91.5264 206.409515 
L 93.312 307.584 
L 95.0976 257.161048 
L 96.8832 218.149414 
L 100.4544 186.624 
L 102.24 226.937521 
L 104.0256 186.624 
L 105.8112 307.584 
L 107.5968 245.598089 
L 109.3824 206.673615 
L 111.168 255.595118 
L 112.9536 307.584 
L 114.7392 307.584 
L 116.5248 208.47363 
L 118.3104 216.511627 
L 120.096 238.686701 
L 121.8816 212.02328 
L 123.6672 307.584 
L 125.4528 186.624 
L 127.2384 307.584 
L 129.024 244.653683 
L 130.8096 186.624 
L 132.5952 276.537488 
L 134.3808 265.775696 
L 136.1664 218.613665 
L 137.952 186.624 
L 139.7376 206.88334 
L 141.5232 252.995507 
L 143.3088 267.129526 
L 145.0944 199.570455 
L 146.88 206.788219 
L 148.6656 293.310134 
L 150.4512 186.624 
L 152.2368 270.690378 
L 154.0224 186.624 
L 155.808 218.245719 
L 157.5936 307.584 
L 159.3792 186.624 
L 161.1648 208.357064 
L 162.9504 186.624 
L 164.736 232.355863 
L 166.5216 270.370128 
L 168.3072 238.230164 
L 170.0928 269.934412 
L 171.8784 235.257641 
L 173.664 263.069865 
L 175.4496 211.266846 
L 177.2352 245.70192 
L 179.0208 210.319714 
L 180.8064 237.387275 
L 182.592 186.624 
L 184.3776 307.35352 
L 186.1632 268.133173 
L 187.9488 267.436789 
L 189.7344 274.872647 
L 191.52 186.624 
L 193.3056 272.881358 
L 195.0912 307.584 
L 196.8768 237.773528 
L 198.6624 186.624 
L 200.448 276.343438 
L 202.2336 307.584 
L 204.0192 215.441221 
L 205.8048 252.349876 
L 207.5904 196.89848 
L 209.376 266.470652 
L 211.1616 307.584 
L 216.5184 307.584 
L 218.304 251.236243 
L 220.0896 212.268099 
L 221.8752 213.140942 
L 223.6608 279.999114 
L 225.4464 307.584 
L 227.232 214.597343 
L 229.0176 266.536738 
L 230.8032 273.650724 
L 232.5888 307.377549 
L 234.3744 207.719601 
L 236.16 307.584 
L 237.9456 240.21731 
L 239.7312 307.584 
L 241.5168 186.624 
L 243.3024 295.838532 
L 245.088 223.746625 
L 246.8736 307.584 
L 248.6592 186.624 
L 250.4448 264.119288 
L 252.2304 227.579657 
L 254.016 258.845893 
L 255.8016 247.053658 
L 257.5872 221.856827 
L 259.3728 289.593904 
L 261.1584 307.584 
L 264.7296 307.584 
L 266.5152 206.056773 
L 268.3008 186.624 
L 270.0864 186.624 
L 271.872 189.718118 
L 273.6576 301.571027 
L 275.4432 283.848126 
L 277.2288 307.584 
L 279.0144 296.568807 
L 280.8 275.163884 
L 284.3712 186.624 
L 286.1568 307.584 
L 287.9424 205.60177 
L 289.728 307.584 
L 291.5136 202.891715 
L 293.2992 252.132626 
L 295.0848 186.624 
L 296.8704 205.395995 
L 298.656 190.383355 
L 300.4416 307.584 
L 302.2272 307.584 
L 304.0128 257.947805 
L 305.7984 307.584 
L 309.3696 307.584 
L 311.1552 266.117141 
L 312.9408 249.775427 
L 314.7264 186.624 
L 316.512 270.618802 
L 318.2976 260.060736 
L 320.0832 229.066615 
L 321.8688 276.677663 
L 323.6544 307.584 
L 325.44 269.066222 
L 327.2256 237.250787 
L 329.0112 191.389808 
L 330.7968 280.579256 
L 332.5824 200.15927 
L 334.368 241.407707 
L 336.1536 265.182159 
L 337.9392 307.584 
L 339.7248 255.26328 
L 341.5104 186.624 
L 343.296 209.728683 
L 345.0816 223.292277 
L 346.8672 298.082416 
L 348.6528 212.024848 
L 350.4384 260.545725 
L 352.224 201.653437 
L 354.0096 263.233366 
L 355.7952 307.584 
L 357.5808 186.624 
L 359.3664 307.584 
L 361.152 223.77055 
L 362.9376 186.624 
L 364.7232 286.702698 
L 366.5088 253.791701 
L 368.2944 272.442525 
L 370.08 207.12854 
L 371.8656 272.376437 
L 373.6512 245.466794 
L 375.4368 200.093295 
L 377.2224 186.624 
L 379.008 236.814966 
L 380.7936 307.584 
L 382.5792 230.305649 
L 384.3648 240.917153 
L 386.1504 264.575971 
L 387.936 225.71168 
L 389.7216 229.670032 
L 391.5072 307.584 
L 393.2928 288.261128 
L 395.0784 235.219525 
L 396.864 307.584 
L 398.6496 268.391392 
L 400.4352 199.712454 
L 402.2208 307.584 
L 404.0064 248.026505 
L 405.792 261.476902 
L 407.5776 307.584 
L 409.3632 210.595333 
L 411.1488 195.79196 
L 412.9344 283.318355 
L 412.9344 283.318355 
" style="fill:none;stroke:#1f77b4;stroke-linecap:square;stroke-width:1.5;"/>
   </g>
   <g id="patch_8">
    <path d="M 57.6 307.584 
L 57.6 186.624 
" style="fill:none;stroke:#000000;stroke-linecap:square;stroke-linejoin:miter;stroke-width:0.8;"/>
   </g>
   <g id="patch_9">
    <path d="M 414.72 307.584 
L 414.72 186.624 
" style="fill:none;stroke:#000000;stroke-linecap:square;stroke-linejoin:miter;stroke-width:0.8;"/>
   </g>
   <g id="patch_10">
    <path d="M 57.6 307.584 
L 414.72 307.584 
" style="fill:none;stroke:#000000;stroke-linecap:square;stroke-linejoin:miter;stroke-width:0.8;"/>
   </g>
   <g id="patch_11">
    <path d="M 57.6 186.624 
L 414.72 186.624 
" style="fill:none;stroke:#000000;stroke-linecap:square;stroke-linejoin:miter;stroke-width:0.8;"/>
   </g>
  </g>
 </g>
 <defs>
  <clipPath id="pda55173f55">
   <rect height="120.96" width="357.12" x="57.6" y="41.472"/>
  </clipPath>
  <clipPath id="p7ab77fb8c7">
   <rect height="120.96" width="357.12" x="57.6" y="186.624"/>
  </clipPath>
 </defs>
</svg>
