<?xml version="1.0" encoding="utf-8" standalone="no"?>
<!DOCTYPE svg PUBLIC "-//W3C//DTD SVG 1.1//EN"
  "http://www.w3.org/Graphics/SVG/1.1/DTD/svg11.dtd">
<!-- Created with matplotlib (https://matplotlib.org/) -->
<svg height="345.6pt" version="1.1" viewBox="0 0 460.8 345.6" width="460.8pt" xmlns="http://www.w3.org/2000/svg" xmlns:xlink="http://www.w3.org/1999/xlink">
 <metadata>
  <rdf:RDF xmlns:cc="http://creativecommons.org/ns#" xmlns:dc="http://purl.org/dc/elements/1.1/" xmlns:rdf="http://www.w3.org/1999/02/22-rdf-syntax-ns#">
   <cc:Work>
    <dc:type rdf:resource="http://purl.org/dc/dcmitype/StillImage"/>
    <dc:date>2022-04-20T03:13:02.726123</dc:date>
    <dc:format>image/svg+xml</dc:format>
    <dc:creator>
     <cc:Agent>
      <dc:title>Matplotlib v3.3.1, https://matplotlib.org/</dc:title>
     </cc:Agent>
    </dc:creator>
   </cc:Work>
  </rdf:RDF>
 </metadata>
 <defs>
  <style type="text/css">*{stroke-linecap:butt;stroke-linejoin:round;}</style>
 </defs>
 <g id="figure_1">
  <g id="patch_1">
   <path d="M 0 345.6 
L 460.8 345.6 
L 460.8 0 
L 0 0 
z
" style="fill:#ffffff;"/>
  </g>
  <g id="axes_1">
   <g id="patch_2">
    <path d="M 57.6 162.432 
L 414.72 162.432 
L 414.72 41.472 
L 57.6 41.472 
z
" style="fill:#ffffff;"/>
   </g>
   <g id="matplotlib.axis_1"/>
   <g id="matplotlib.axis_2"/>
   <g id="line2d_1">
    <path clip-path="url(#p121b19775e)" d="M 57.6 84.345916 
L 59.3856 96.755912 
L 61.1712 110.845486 
L 62.9568 110.944723 
L 64.7424 121.498856 
L 66.528 111.58659 
L 68.3136 125.574907 
L 70.0992 107.68121 
L 71.8848 101.210423 
L 73.6704 86.108607 
L 75.456 94.203172 
L 77.2416 99.881999 
L 79.0272 67.372818 
L 80.8128 119.702036 
L 82.5984 106.332947 
L 84.384 91.153452 
L 87.9552 102.056688 
L 89.7408 80.74518 
L 91.5264 82.535651 
L 93.312 105.625704 
L 95.0976 99.193965 
L 96.8832 106.210984 
L 98.6688 110.101336 
L 100.4544 125.627789 
L 102.24 79.223323 
L 104.0256 95.209459 
L 105.8112 98.904469 
L 107.5968 96.217219 
L 109.3824 92.737162 
L 111.168 75.601249 
L 112.9536 82.588839 
L 114.7392 110.790766 
L 116.5248 101.937385 
L 118.3104 94.164322 
L 120.096 107.934685 
L 121.8816 111.970998 
L 123.6672 99.360279 
L 125.4528 91.054996 
L 127.2384 117.619845 
L 129.024 109.476763 
L 130.8096 91.389222 
L 132.5952 94.921502 
L 134.3808 89.087765 
L 136.1664 86.758231 
L 137.952 99.034748 
L 139.7376 102.715199 
L 141.5232 89.010122 
L 143.3088 129.416279 
L 145.0944 88.011617 
L 146.88 116.349037 
L 148.6656 108.979593 
L 150.4512 118.991784 
L 152.2368 117.679879 
L 154.0224 76.77677 
L 155.808 102.172073 
L 157.5936 91.234099 
L 159.3792 115.957542 
L 161.1648 114.68781 
L 162.9504 97.408852 
L 164.736 102.025588 
L 166.5216 101.015147 
L 168.3072 126.380101 
L 171.8784 95.467279 
L 173.664 123.574931 
L 175.4496 88.674659 
L 177.2352 100.852708 
L 179.0208 96.624579 
L 180.8064 87.939682 
L 182.592 118.335086 
L 184.3776 99.955328 
L 186.1632 109.159732 
L 187.9488 88.579549 
L 189.7344 94.502687 
L 191.52 95.00917 
L 193.3056 94.236466 
L 195.0912 117.244972 
L 196.8768 99.494834 
L 198.6624 107.863688 
L 200.448 99.306515 
L 202.2336 76.650711 
L 204.0192 90.823871 
L 205.8048 85.668091 
L 207.5904 104.670401 
L 209.376 108.069628 
L 211.1616 119.22889 
L 212.9472 111.236886 
L 214.7328 109.198896 
L 216.5184 114.774442 
L 218.304 112.774527 
L 220.0896 98.470814 
L 221.8752 94.825873 
L 223.6608 93.54376 
L 225.4464 126.10546 
L 227.232 101.869065 
L 229.0176 88.557304 
L 230.8032 99.684459 
L 232.5888 95.791964 
L 234.3744 118.666603 
L 236.16 86.7562 
L 237.9456 102.037124 
L 239.7312 95.044213 
L 241.5168 85.938328 
L 243.3024 113.113624 
L 246.8736 84.865339 
L 248.6592 119.652823 
L 250.4448 97.659336 
L 252.2304 86.893647 
L 254.016 100.64858 
L 255.8016 102.946169 
L 257.5872 92.372947 
L 259.3728 118.049389 
L 261.1584 109.775489 
L 262.944 94.684853 
L 264.7296 115.702886 
L 266.5152 115.581082 
L 268.3008 85.069233 
L 270.0864 92.543042 
L 273.6576 127.460473 
L 275.4432 93.922462 
L 277.2288 75.828205 
L 279.0144 123.092365 
L 280.8 91.212674 
L 282.5856 99.212593 
L 284.3712 112.28033 
L 286.1568 85.290207 
L 287.9424 110.631771 
L 289.728 116.951073 
L 291.5136 110.827907 
L 293.2992 102.722014 
L 295.0848 100.680421 
L 296.8704 114.958326 
L 298.656 89.3866 
L 300.4416 116.035594 
L 302.2272 91.759916 
L 304.0128 92.10738 
L 305.7984 91.801333 
L 307.584 107.266538 
L 311.1552 101.273507 
L 312.9408 97.676597 
L 314.7264 93.413276 
L 316.512 60.340571 
L 318.2976 115.049692 
L 320.0832 105.348833 
L 321.8688 98.591935 
L 323.6544 107.011743 
L 325.44 94.860119 
L 327.2256 119.840546 
L 329.0112 113.853549 
L 330.7968 101.225537 
L 332.5824 85.912351 
L 334.368 109.171578 
L 336.1536 107.803095 
L 337.9392 86.757097 
L 339.7248 101.084837 
L 341.5104 77.762834 
L 343.296 112.128287 
L 345.0816 106.039263 
L 346.8672 124.750309 
L 348.6528 72.88996 
L 350.4384 90.253508 
L 352.224 95.422002 
L 354.0096 110.645599 
L 355.7952 99.251311 
L 357.5808 91.605065 
L 359.3664 114.651792 
L 361.152 108.060833 
L 362.9376 98.96169 
L 364.7232 101.281252 
L 366.5088 93.817401 
L 368.2944 94.226092 
L 370.08 81.02829 
L 371.8656 94.273358 
L 373.6512 89.410929 
L 375.4368 97.931493 
L 377.2224 100.915919 
L 379.008 95.563735 
L 380.7936 95.985923 
L 382.5792 112.546525 
L 384.3648 91.286247 
L 386.1504 104.315032 
L 387.936 92.03044 
L 389.7216 94.631394 
L 391.5072 87.613656 
L 393.2928 112.61359 
L 395.0784 120.260349 
L 396.864 97.546359 
L 398.6496 119.590214 
L 400.4352 101.373222 
L 402.2208 110.811394 
L 404.0064 91.699945 
L 405.792 84.549673 
L 407.5776 89.111462 
L 409.3632 108.499626 
L 411.1488 97.307599 
L 412.9344 128.214439 
L 412.9344 128.214439 
" style="fill:none;stroke:#1f77b4;stroke-linecap:square;stroke-width:1.5;"/>
   </g>
   <g id="patch_3">
    <path d="M 57.6 162.432 
L 57.6 41.472 
" style="fill:none;stroke:#000000;stroke-linecap:square;stroke-linejoin:miter;stroke-width:0.8;"/>
   </g>
   <g id="patch_4">
    <path d="M 414.72 162.432 
L 414.72 41.472 
" style="fill:none;stroke:#000000;stroke-linecap:square;stroke-linejoin:miter;stroke-width:0.8;"/>
   </g>
   <g id="patch_5">
    <path d="M 57.6 162.432 
L 414.72 162.432 
" style="fill:none;stroke:#000000;stroke-linecap:square;stroke-linejoin:miter;stroke-width:0.8;"/>
   </g>
   <g id="patch_6">
    <path d="M 57.6 41.472 
L 414.72 41.472 
" style="fill:none;stroke:#000000;stroke-linecap:square;stroke-linejoin:miter;stroke-width:0.8;"/>
   </g>
  </g>
  <g id="axes_2">
   <g id="patch_7">
    <path d="M 57.6 307.584 
L 414.72 307.584 
L 414.72 186.624 
L 57.6 186.624 
z
" style="fill:#ffffff;"/>
   </g>
   <g id="matplotlib.axis_3"/>
   <g id="matplotlib.axis_4"/>
   <g id="line2d_2">
    <path clip-path="url(#p7ddfec8dc4)" d="M 57.6 229.584249 
L 59.3856 251.744071 
L 61.1712 262.081055 
L 62.9568 254.615256 
L 64.7424 263.758139 
L 66.528 258.176315 
L 68.3136 275.198934 
L 70.0992 255.113541 
L 71.8848 246.384294 
L 73.6704 235.877674 
L 75.456 249.387018 
L 77.2416 246.156323 
L 79.0272 192.533646 
L 80.8128 236.602563 
L 82.5984 240.338835 
L 84.384 247.836031 
L 86.1696 260.278247 
L 87.9552 260.507359 
L 89.7408 236.113201 
L 91.5264 244.00681 
L 93.312 271.008305 
L 95.0976 243.417027 
L 96.8832 211.628127 
L 98.6688 204.391936 
L 100.4544 250.443287 
L 102.24 235.337258 
L 104.0256 259.56758 
L 105.8112 266.393585 
L 107.5968 268.013755 
L 109.3824 256.92492 
L 111.168 223.616038 
L 112.9536 219.454063 
L 114.7392 242.218188 
L 116.5248 229.538548 
L 118.3104 222.928096 
L 120.096 245.310997 
L 121.8816 258.595257 
L 123.6672 249.771659 
L 125.4528 243.278209 
L 127.2384 272.011733 
L 129.024 260.781398 
L 130.8096 234.557875 
L 132.5952 236.365805 
L 134.3808 239.79613 
L 136.1664 244.914219 
L 137.952 249.570448 
L 139.7376 236.585258 
L 141.5232 215.114853 
L 143.3088 261.819835 
L 145.0944 229.778229 
L 146.88 264.230297 
L 148.6656 262.892623 
L 150.4512 277.486197 
L 152.2368 273.989501 
L 154.0224 224.971131 
L 155.808 242.315632 
L 157.5936 229.271144 
L 159.3792 259.784625 
L 161.1648 265.610279 
L 162.9504 245.798899 
L 164.736 237.866332 
L 166.5216 227.584923 
L 168.3072 258.13904 
L 170.0928 259.819097 
L 171.8784 259.351147 
L 173.664 283.535846 
L 175.4496 231.659136 
L 177.2352 240.289492 
L 179.0208 250.751714 
L 180.8064 246.468627 
L 182.592 260.546023 
L 184.3776 230.367479 
L 186.1632 243.59383 
L 187.9488 228.048563 
L 189.7344 236.598514 
L 191.52 243.491306 
L 193.3056 247.366747 
L 195.0912 268.010892 
L 196.8768 244.493737 
L 198.6624 249.036332 
L 200.448 244.549452 
L 202.2336 229.357387 
L 204.0192 238.626857 
L 205.8048 222.201797 
L 207.5904 246.34032 
L 209.376 262.054026 
L 211.1616 267.407134 
L 212.9472 245.829836 
L 214.7328 244.839348 
L 216.5184 259.335927 
L 218.304 260.929749 
L 220.0896 248.242182 
L 221.8752 246.871818 
L 223.6608 244.733285 
L 225.4464 275.061848 
L 227.232 250.830059 
L 229.0176 236.397125 
L 230.8032 239.478084 
L 232.5888 223.699319 
L 234.3744 244.1083 
L 236.16 224.574535 
L 237.9456 254.156739 
L 239.7312 251.627797 
L 241.5168 242.171978 
L 243.3024 270.80687 
L 245.088 254.633062 
L 246.8736 232.944589 
L 248.6592 261.732535 
L 250.4448 237.607208 
L 252.2304 220.158227 
L 254.016 226.235316 
L 255.8016 234.42424 
L 257.5872 242.031508 
L 259.3728 280.363154 
L 261.1584 268.094933 
L 262.944 239.699872 
L 264.7296 254.548003 
L 266.5152 261.097981 
L 268.3008 239.405868 
L 270.0864 244.570568 
L 271.872 247.641469 
L 273.6576 255.105377 
L 275.4432 229.079452 
L 277.2288 225.698568 
L 279.0144 278.057501 
L 280.8 243.316174 
L 282.5856 247.581921 
L 284.3712 256.114319 
L 286.1568 226.384576 
L 287.9424 257.352721 
L 289.728 277.678621 
L 291.5136 276.410799 
L 293.2992 242.04599 
L 295.0848 202.409436 
L 298.656 238.593929 
L 300.4416 286.386347 
L 302.2272 245.958419 
L 304.0128 237.428592 
L 305.7984 251.667858 
L 307.584 279.385382 
L 309.3696 266.822886 
L 311.1552 237.616131 
L 312.9408 216.190968 
L 314.7264 216.110748 
L 316.512 192.576066 
L 318.2976 253.96848 
L 320.0832 262.240912 
L 321.8688 272.149656 
L 323.6544 265.641985 
L 325.44 224.123472 
L 327.2256 246.488596 
L 329.0112 258.04438 
L 330.7968 252.009874 
L 332.5824 233.224967 
L 334.368 255.828067 
L 336.1536 254.634552 
L 337.9392 235.098798 
L 339.7248 253.579711 
L 341.5104 226.970163 
L 343.296 250.402458 
L 345.0816 242.156271 
L 346.8672 269.806768 
L 348.6528 221.590805 
L 350.4384 233.042298 
L 352.224 234.508851 
L 354.0096 252.036951 
L 355.7952 244.427484 
L 357.5808 242.796892 
L 359.3664 271.014365 
L 361.152 257.703278 
L 362.9376 236.888229 
L 364.7232 245.193516 
L 366.5088 251.595828 
L 368.2944 241.06906 
L 370.08 204.966649 
L 373.6512 238.634373 
L 375.4368 256.467344 
L 377.2224 252.798407 
L 379.008 236.78933 
L 380.7936 233.71217 
L 382.5792 259.394097 
L 384.3648 248.78841 
L 386.1504 260.958474 
L 387.936 239.87947 
L 389.7216 233.421258 
L 391.5072 222.561145 
L 393.2928 256.090738 
L 395.0784 274.636122 
L 396.864 242.844549 
L 398.6496 245.289757 
L 400.4352 228.1548 
L 402.2208 256.526282 
L 404.0064 247.397182 
L 405.792 236.913321 
L 407.5776 237.625828 
L 409.3632 261.305297 
L 411.1488 263.436113 
L 412.9344 299.000308 
L 412.9344 299.000308 
" style="fill:none;stroke:#1f77b4;stroke-linecap:square;stroke-width:1.5;"/>
   </g>
   <g id="patch_8">
    <path d="M 57.6 307.584 
L 57.6 186.624 
" style="fill:none;stroke:#000000;stroke-linecap:square;stroke-linejoin:miter;stroke-width:0.8;"/>
   </g>
   <g id="patch_9">
    <path d="M 414.72 307.584 
L 414.72 186.624 
" style="fill:none;stroke:#000000;stroke-linecap:square;stroke-linejoin:miter;stroke-width:0.8;"/>
   </g>
   <g id="patch_10">
    <path d="M 57.6 307.584 
L 414.72 307.584 
" style="fill:none;stroke:#000000;stroke-linecap:square;stroke-linejoin:miter;stroke-width:0.8;"/>
   </g>
   <g id="patch_11">
    <path d="M 57.6 186.624 
L 414.72 186.624 
" style="fill:none;stroke:#000000;stroke-linecap:square;stroke-linejoin:miter;stroke-width:0.8;"/>
   </g>
  </g>
 </g>
 <defs>
  <clipPath id="p121b19775e">
   <rect height="120.96" width="357.12" x="57.6" y="41.472"/>
  </clipPath>
  <clipPath id="p7ddfec8dc4">
   <rect height="120.96" width="357.12" x="57.6" y="186.624"/>
  </clipPath>
 </defs>
</svg>
