<?xml version="1.0" encoding="utf-8" standalone="no"?>
<!DOCTYPE svg PUBLIC "-//W3C//DTD SVG 1.1//EN"
  "http://www.w3.org/Graphics/SVG/1.1/DTD/svg11.dtd">
<!-- Created with matplotlib (https://matplotlib.org/) -->
<svg height="345.6pt" version="1.1" viewBox="0 0 460.8 345.6" width="460.8pt" xmlns="http://www.w3.org/2000/svg" xmlns:xlink="http://www.w3.org/1999/xlink">
 <metadata>
  <rdf:RDF xmlns:cc="http://creativecommons.org/ns#" xmlns:dc="http://purl.org/dc/elements/1.1/" xmlns:rdf="http://www.w3.org/1999/02/22-rdf-syntax-ns#">
   <cc:Work>
    <dc:type rdf:resource="http://purl.org/dc/dcmitype/StillImage"/>
    <dc:date>2022-04-20T03:13:02.845816</dc:date>
    <dc:format>image/svg+xml</dc:format>
    <dc:creator>
     <cc:Agent>
      <dc:title>Matplotlib v3.3.1, https://matplotlib.org/</dc:title>
     </cc:Agent>
    </dc:creator>
   </cc:Work>
  </rdf:RDF>
 </metadata>
 <defs>
  <style type="text/css">*{stroke-linecap:butt;stroke-linejoin:round;}</style>
 </defs>
 <g id="figure_1">
  <g id="patch_1">
   <path d="M 0 345.6 
L 460.8 345.6 
L 460.8 0 
L 0 0 
z
" style="fill:#ffffff;"/>
  </g>
  <g id="axes_1">
   <g id="patch_2">
    <path d="M 57.6 162.432 
L 414.72 162.432 
L 414.72 41.472 
L 57.6 41.472 
z
" style="fill:#ffffff;"/>
   </g>
   <g id="matplotlib.axis_1"/>
   <g id="matplotlib.axis_2"/>
   <g id="line2d_1">
    <path clip-path="url(#pce7ff35221)" d="M 57.6 125.600177 
L 59.3856 136.888423 
L 61.1712 33.083948 
L 62.9568 172.326376 
L 64.7424 115.18979 
L 66.528 33.918045 
L 68.3136 108.128291 
L 70.0992 116.34163 
L 71.8848 65.501958 
L 73.6704 158.058005 
L 75.456 154.618337 
L 77.2416 61.403057 
L 79.0272 100.539669 
L 80.8128 103.501857 
L 82.5984 122.799531 
L 84.384 70.430086 
L 86.1696 169.989102 
L 87.9552 63.353539 
L 89.7408 137.187273 
L 91.5264 71.90671 
L 93.312 118.100104 
L 95.0976 81.679718 
L 96.8832 118.072271 
L 98.6688 134.234772 
L 100.4544 70.743264 
L 104.0256 121.640516 
L 105.8112 108.360696 
L 107.5968 79.508703 
L 109.3824 78.030376 
L 111.168 61.151839 
L 112.9536 144.776387 
L 114.7392 112.852386 
L 116.5248 95.994401 
L 118.3104 109.643023 
L 120.096 107.278671 
L 121.8816 91.486489 
L 123.6672 73.209681 
L 125.4528 169.102371 
L 127.2384 130.894987 
L 129.024 107.183663 
L 130.8096 85.856427 
L 132.5952 97.276242 
L 134.3808 93.322043 
L 136.1664 113.126333 
L 137.952 95.452393 
L 139.7376 106.96025 
L 141.5232 156.070387 
L 143.3088 135.128562 
L 145.0944 87.475519 
L 146.88 21.622869 
L 148.6656 184.170204 
L 150.4512 106.994848 
L 152.2368 68.237771 
L 154.0224 127.402213 
L 155.808 67.890578 
L 157.5936 138.387179 
L 159.3792 115.657354 
L 161.1648 144.019827 
L 162.9504 31.01065 
L 164.736 119.835932 
L 166.5216 76.220102 
L 168.3072 117.837581 
L 170.0928 34.933774 
L 171.8784 121.492307 
L 173.664 34.86265 
L 175.4496 90.934155 
L 177.2352 81.166166 
L 179.0208 105.427138 
L 180.8064 95.57742 
L 182.592 167.113995 
L 184.3776 66.969493 
L 186.1632 94.528992 
L 187.9488 107.239459 
L 189.7344 78.23935 
L 191.52 44.087335 
L 193.3056 128.73718 
L 195.0912 82.93634 
L 196.8768 81.118844 
L 198.6624 127.48247 
L 200.448 142.379209 
L 202.2336 124.421407 
L 204.0192 111.96846 
L 205.8048 82.279473 
L 207.5904 66.693818 
L 209.376 136.548772 
L 211.1616 56.513644 
L 212.9472 148.011663 
L 214.7328 107.625854 
L 216.5184 50.696666 
L 218.304 90.642889 
L 220.0896 115.673121 
L 221.8752 112.919249 
L 223.6608 69.884335 
L 225.4464 134.686122 
L 227.232 87.2076 
L 229.0176 101.9784 
L 230.8032 86.595607 
L 232.5888 76.657487 
L 234.3744 84.159798 
L 236.16 87.017138 
L 237.9456 93.329922 
L 239.7312 97.835226 
L 241.5168 105.13772 
L 243.3024 78.954123 
L 245.088 101.242244 
L 246.8736 121.70199 
L 248.6592 103.254584 
L 250.4448 151.303386 
L 252.2304 98.33269 
L 254.016 151.944689 
L 255.8016 143.68817 
L 257.5872 126.15789 
L 259.3728 70.724436 
L 261.1584 111.758641 
L 262.944 137.893086 
L 264.7296 112.926397 
L 266.5152 128.063352 
L 268.3008 122.094943 
L 270.0864 68.909866 
L 271.872 98.675149 
L 273.6576 156.095904 
L 277.2288 49.748063 
L 279.0144 147.507147 
L 280.8 83.088586 
L 282.5856 90.701055 
L 284.3712 91.918127 
L 286.1568 56.171073 
L 287.9424 59.093168 
L 289.728 127.755363 
L 291.5136 111.324871 
L 293.2992 135.8877 
L 295.0848 115.271095 
L 296.8704 99.548244 
L 298.656 132.870451 
L 300.4416 41.440281 
L 302.2272 114.686399 
L 304.0128 105.576231 
L 305.7984 174.982776 
L 307.584 125.155069 
L 309.3696 143.482841 
L 311.1552 38.819124 
L 312.9408 95.739213 
L 314.7264 141.962677 
L 316.512 55.755092 
L 318.2976 70.936749 
L 320.0832 120.159082 
L 321.8688 155.074008 
L 323.6544 67.989595 
L 325.44 54.731786 
L 327.2256 125.04028 
L 329.0112 114.84711 
L 332.5824 80.541537 
L 334.368 120.310644 
L 336.1536 96.203119 
L 337.9392 139.92805 
L 339.7248 91.216509 
L 341.5104 95.349688 
L 343.296 89.152947 
L 345.0816 70.793869 
L 346.8672 85.414128 
L 348.6528 96.060473 
L 350.4384 123.685043 
L 352.224 104.096516 
L 354.0096 130.145423 
L 355.7952 107.177941 
L 357.5808 63.420231 
L 359.3664 104.769306 
L 361.152 127.647923 
L 362.9376 96.468198 
L 364.7232 138.674454 
L 366.5088 145.246444 
L 368.2944 121.507515 
L 370.08 135.295821 
L 371.8656 74.996723 
L 373.6512 126.279663 
L 375.4368 76.280292 
L 377.2224 64.447547 
L 379.008 99.082344 
L 380.7936 76.679308 
L 382.5792 81.053339 
L 384.3648 28.34454 
L 386.1504 23.527289 
L 387.936 32.464892 
L 389.7216 99.051248 
L 391.470933 -1 
M 391.544229 -1 
L 393.2928 96.951733 
L 395.0784 70.403089 
L 396.864 120.746733 
L 398.6496 95.074542 
L 400.4352 201.892038 
L 402.2208 67.350773 
L 404.0064 84.733962 
L 405.792 94.65479 
L 407.5776 110.351378 
L 409.3632 149.421319 
L 411.1488 116.049722 
L 412.9344 145.285803 
L 412.9344 145.285803 
" style="fill:none;stroke:#1f77b4;stroke-linecap:square;stroke-width:1.5;"/>
   </g>
   <g id="patch_3">
    <path d="M 57.6 162.432 
L 57.6 41.472 
" style="fill:none;stroke:#000000;stroke-linecap:square;stroke-linejoin:miter;stroke-width:0.8;"/>
   </g>
   <g id="patch_4">
    <path d="M 414.72 162.432 
L 414.72 41.472 
" style="fill:none;stroke:#000000;stroke-linecap:square;stroke-linejoin:miter;stroke-width:0.8;"/>
   </g>
   <g id="patch_5">
    <path d="M 57.6 162.432 
L 414.72 162.432 
" style="fill:none;stroke:#000000;stroke-linecap:square;stroke-linejoin:miter;stroke-width:0.8;"/>
   </g>
   <g id="patch_6">
    <path d="M 57.6 41.472 
L 414.72 41.472 
" style="fill:none;stroke:#000000;stroke-linecap:square;stroke-linejoin:miter;stroke-width:0.8;"/>
   </g>
  </g>
  <g id="axes_2">
   <g id="patch_7">
    <path d="M 57.6 307.584 
L 414.72 307.584 
L 414.72 186.624 
L 57.6 186.624 
z
" style="fill:#ffffff;"/>
   </g>
   <g id="matplotlib.axis_3"/>
   <g id="matplotlib.axis_4"/>
   <g id="line2d_2">
    <path clip-path="url(#p8d6ee2dbde)" d="M 57.6 270.83851 
L 59.3856 291.876581 
L 61.1712 186.624 
L 62.9568 307.584 
L 64.7424 257.449073 
L 66.528 186.624 
L 68.3136 257.752318 
L 70.0992 263.773961 
L 71.8848 210.675829 
L 73.6704 307.584 
L 75.456 307.584 
L 77.2416 207.67738 
L 79.0272 225.700497 
L 80.8128 220.402384 
L 82.5984 256.80542 
L 84.384 227.112665 
L 86.1696 307.584 
L 87.9552 221.80421 
L 89.7408 292.555295 
L 91.5264 233.377869 
L 93.312 283.482705 
L 95.0976 225.90278 
L 96.8832 223.489414 
L 98.6688 228.525373 
L 100.4544 195.558762 
L 102.24 251.742798 
L 104.0256 285.998637 
L 105.8112 275.849812 
L 107.5968 251.305239 
L 109.3824 242.218134 
L 111.168 209.166627 
L 112.9536 281.64161 
L 114.7392 244.279808 
L 116.5248 223.595563 
L 118.3104 238.406798 
L 120.096 244.654983 
L 121.8816 238.110747 
L 123.6672 223.621062 
L 125.4528 307.584 
L 127.2384 285.286875 
L 129.024 258.488299 
L 130.8096 229.02508 
L 132.5952 238.720546 
L 134.3808 244.030408 
L 136.1664 271.282321 
L 137.952 245.988092 
L 139.7376 240.830309 
L 141.5232 282.175118 
L 143.3088 267.532117 
L 145.0944 229.242131 
L 146.88 186.624 
L 148.6656 307.584 
L 152.2368 224.547393 
L 154.0224 275.596573 
L 155.808 208.034137 
L 157.5936 276.424223 
L 159.3792 259.484437 
L 161.1648 294.942296 
L 162.9504 186.624 
L 164.736 255.676676 
L 166.5216 202.789878 
L 168.3072 249.596521 
L 170.0928 186.624 
L 171.8784 285.376174 
L 173.664 194.823565 
L 175.4496 233.918632 
L 177.2352 220.602949 
L 179.0208 259.554273 
L 180.8064 254.106365 
L 182.592 307.584 
L 184.3776 197.381644 
L 186.1632 228.96309 
L 187.9488 246.708474 
L 191.52 192.56947 
L 193.3056 281.867462 
L 195.0912 233.70226 
L 196.8768 226.117748 
L 198.6624 268.655113 
L 200.448 287.622146 
L 202.2336 277.128083 
L 204.0192 259.771445 
L 205.8048 218.813179 
L 207.5904 208.363737 
L 209.376 290.53317 
L 211.1616 204.691889 
L 212.9472 282.604613 
L 214.7328 243.266306 
L 216.5184 195.258151 
L 218.304 238.798112 
L 220.0896 265.44449 
L 221.8752 264.965193 
L 223.6608 221.07386 
L 225.4464 283.642511 
L 227.232 236.168593 
L 229.0176 249.818221 
L 230.8032 226.389231 
L 232.5888 204.564842 
L 234.3744 209.601495 
L 236.16 224.835473 
L 237.9456 245.449537 
L 239.7312 254.41881 
L 241.5168 261.37137 
L 243.3024 236.647369 
L 245.088 257.201931 
L 246.8736 269.78124 
L 248.6592 245.334296 
L 250.4448 291.251259 
L 252.2304 231.59727 
L 254.016 277.531424 
L 255.8016 275.166241 
L 257.5872 275.81645 
L 259.3728 233.038201 
L 261.1584 270.078086 
L 262.944 282.908105 
L 264.7296 251.771514 
L 266.5152 273.580251 
L 268.3008 276.431578 
L 270.0864 220.937393 
L 271.872 236.491182 
L 273.6576 283.740808 
L 275.4432 238.77193 
L 277.2288 199.618427 
L 279.0144 302.472283 
L 280.8 235.192085 
L 282.5856 239.070383 
L 284.3712 235.752116 
L 286.1568 197.265442 
L 287.9424 205.814118 
L 289.728 288.482911 
L 291.5136 276.907764 
L 293.2992 275.211675 
L 295.0848 217.00011 
L 296.8704 205.306113 
L 298.656 282.07778 
L 300.4416 211.791034 
L 302.2272 268.884902 
L 304.0128 250.897443 
L 305.7984 307.584 
L 307.584 297.273914 
L 309.3696 305.948552 
L 311.1552 186.624 
L 312.9408 214.253584 
L 314.7264 264.660149 
L 316.512 187.990587 
L 318.2976 209.855537 
L 320.0832 277.051161 
L 321.8688 307.584 
L 323.6544 226.619837 
L 325.44 186.624 
L 327.2256 251.68833 
L 329.0112 259.03794 
L 330.7968 248.769011 
L 332.5824 227.854154 
L 334.368 266.967134 
L 336.1536 243.034575 
L 337.9392 288.269751 
L 339.7248 243.711383 
L 341.5104 244.557017 
L 343.296 227.427119 
L 345.0816 206.910877 
L 346.8672 230.470587 
L 348.6528 244.761317 
L 350.4384 266.473833 
L 352.224 243.183364 
L 354.0096 271.536776 
L 355.7952 252.354114 
L 357.5808 214.612058 
L 359.3664 261.131879 
L 361.152 277.290368 
L 362.9376 234.394737 
L 364.7232 282.586718 
L 366.5088 303.024871 
L 368.2944 268.350482 
L 370.08 259.23418 
L 371.8656 202.372269 
L 373.6512 275.503107 
L 375.4368 234.816143 
L 377.2224 216.330035 
L 379.008 240.307938 
L 380.7936 214.405555 
L 382.5792 227.900911 
L 384.3648 186.624 
L 387.936 186.624 
L 389.7216 237.841113 
L 391.5072 186.624 
L 393.2928 240.428881 
L 395.0784 224.778862 
L 396.864 266.044923 
L 398.6496 220.774085 
L 400.4352 307.584 
L 402.2208 213.065661 
L 404.0064 240.431199 
L 405.792 247.018438 
L 407.5776 258.865744 
L 409.3632 302.22699 
L 411.1488 282.178236 
L 412.9344 307.584 
L 412.9344 307.584 
" style="fill:none;stroke:#1f77b4;stroke-linecap:square;stroke-width:1.5;"/>
   </g>
   <g id="patch_8">
    <path d="M 57.6 307.584 
L 57.6 186.624 
" style="fill:none;stroke:#000000;stroke-linecap:square;stroke-linejoin:miter;stroke-width:0.8;"/>
   </g>
   <g id="patch_9">
    <path d="M 414.72 307.584 
L 414.72 186.624 
" style="fill:none;stroke:#000000;stroke-linecap:square;stroke-linejoin:miter;stroke-width:0.8;"/>
   </g>
   <g id="patch_10">
    <path d="M 57.6 307.584 
L 414.72 307.584 
" style="fill:none;stroke:#000000;stroke-linecap:square;stroke-linejoin:miter;stroke-width:0.8;"/>
   </g>
   <g id="patch_11">
    <path d="M 57.6 186.624 
L 414.72 186.624 
" style="fill:none;stroke:#000000;stroke-linecap:square;stroke-linejoin:miter;stroke-width:0.8;"/>
   </g>
  </g>
 </g>
 <defs>
  <clipPath id="pce7ff35221">
   <rect height="120.96" width="357.12" x="57.6" y="41.472"/>
  </clipPath>
  <clipPath id="p8d6ee2dbde">
   <rect height="120.96" width="357.12" x="57.6" y="186.624"/>
  </clipPath>
 </defs>
</svg>
