<?xml version="1.0" encoding="utf-8" standalone="no"?>
<!DOCTYPE svg PUBLIC "-//W3C//DTD SVG 1.1//EN"
  "http://www.w3.org/Graphics/SVG/1.1/DTD/svg11.dtd">
<!-- Created with matplotlib (https://matplotlib.org/) -->
<svg height="345.6pt" version="1.1" viewBox="0 0 460.8 345.6" width="460.8pt" xmlns="http://www.w3.org/2000/svg" xmlns:xlink="http://www.w3.org/1999/xlink">
 <metadata>
  <rdf:RDF xmlns:cc="http://creativecommons.org/ns#" xmlns:dc="http://purl.org/dc/elements/1.1/" xmlns:rdf="http://www.w3.org/1999/02/22-rdf-syntax-ns#">
   <cc:Work>
    <dc:type rdf:resource="http://purl.org/dc/dcmitype/StillImage"/>
    <dc:date>2022-04-20T03:13:02.784986</dc:date>
    <dc:format>image/svg+xml</dc:format>
    <dc:creator>
     <cc:Agent>
      <dc:title>Matplotlib v3.3.1, https://matplotlib.org/</dc:title>
     </cc:Agent>
    </dc:creator>
   </cc:Work>
  </rdf:RDF>
 </metadata>
 <defs>
  <style type="text/css">*{stroke-linecap:butt;stroke-linejoin:round;}</style>
 </defs>
 <g id="figure_1">
  <g id="patch_1">
   <path d="M 0 345.6 
L 460.8 345.6 
L 460.8 0 
L 0 0 
z
" style="fill:#ffffff;"/>
  </g>
  <g id="axes_1">
   <g id="patch_2">
    <path d="M 57.6 162.432 
L 414.72 162.432 
L 414.72 41.472 
L 57.6 41.472 
z
" style="fill:#ffffff;"/>
   </g>
   <g id="matplotlib.axis_1"/>
   <g id="matplotlib.axis_2"/>
   <g id="line2d_1">
    <path clip-path="url(#p47a0207d9e)" d="M 57.6 96.310793 
L 59.3856 84.632986 
L 61.1712 103.369561 
L 62.9568 103.405182 
L 64.7424 95.295542 
L 66.528 98.701368 
L 68.3136 92.89653 
L 70.0992 129.147789 
L 71.8848 141.198341 
L 73.6704 101.527125 
L 75.456 88.326404 
L 77.2416 120.386341 
L 79.0272 83.921836 
L 80.8128 75.170214 
L 82.5984 131.317055 
L 84.384 124.534334 
L 86.1696 95.088182 
L 87.9552 118.032332 
L 89.7408 112.562749 
L 91.5264 80.546974 
L 93.312 109.480736 
L 95.0976 94.028632 
L 96.8832 117.7524 
L 98.6688 106.758479 
L 100.4544 100.560931 
L 102.24 79.77895 
L 104.0256 103.531294 
L 105.8112 99.794829 
L 107.5968 86.718355 
L 109.3824 118.525982 
L 111.168 69.57636 
L 112.9536 111.700878 
L 114.7392 75.983088 
L 116.5248 78.121893 
L 118.3104 92.164226 
L 120.096 90.517633 
L 121.8816 73.649103 
L 123.6672 117.853213 
L 125.4528 114.900044 
L 127.2384 85.571586 
L 129.024 124.85301 
L 130.8096 88.683325 
L 132.5952 109.740308 
L 134.3808 115.762481 
L 136.1664 73.108954 
L 137.952 82.659652 
L 139.7376 40.555122 
L 141.5232 108.751476 
L 143.3088 121.494083 
L 145.0944 117.114122 
L 146.88 164.082488 
L 148.6656 114.103557 
L 150.4512 111.462018 
L 152.2368 106.667805 
L 154.0224 131.090876 
L 155.808 75.808218 
L 157.5936 70.218723 
L 159.3792 90.153606 
L 161.1648 148.602951 
L 162.9504 97.619345 
L 164.736 96.936367 
L 166.5216 95.400075 
L 168.3072 113.495323 
L 170.0928 119.561503 
L 171.8784 121.584504 
L 173.664 130.750625 
L 175.4496 113.199753 
L 177.2352 93.378983 
L 179.0208 109.729497 
L 180.8064 119.241286 
L 184.3776 60.089206 
L 186.1632 114.719511 
L 187.9488 79.790021 
L 189.7344 60.637863 
L 191.52 74.853945 
L 193.3056 80.630409 
L 195.0912 73.96068 
L 196.8768 112.260731 
L 198.6624 65.445921 
L 200.448 70.884462 
L 202.2336 98.363432 
L 204.0192 86.121112 
L 205.8048 98.532066 
L 207.5904 127.326389 
L 209.376 131.218741 
L 211.1616 142.41312 
L 212.9472 85.423141 
L 214.7328 104.847806 
L 216.5184 114.506765 
L 218.304 101.536122 
L 220.0896 120.281814 
L 221.8752 77.220833 
L 223.6608 69.223029 
L 225.4464 93.641471 
L 227.232 99.78727 
L 229.0176 90.306945 
L 230.8032 92.434819 
L 234.3744 30.614703 
L 236.16 126.161374 
L 237.9456 111.752865 
L 239.7312 100.911314 
L 241.5168 93.609995 
L 243.3024 81.561857 
L 245.088 139.137311 
L 246.8736 127.396171 
L 248.6592 100.606386 
L 250.4448 122.808987 
L 252.2304 81.753764 
L 254.016 89.439935 
L 255.8016 123.476059 
L 257.5872 145.614437 
L 261.1584 90.994212 
L 262.944 93.692058 
L 264.7296 154.296292 
L 266.5152 56.822142 
L 268.3008 62.127354 
L 270.0864 103.071552 
L 271.872 122.68844 
L 273.6576 115.289449 
L 275.4432 97.446082 
L 277.2288 149.666333 
L 279.0144 84.177328 
L 280.8 86.450042 
L 282.5856 135.85641 
L 284.3712 72.363074 
L 286.1568 91.761431 
L 287.9424 123.567033 
L 289.728 162.45878 
L 291.5136 149.99288 
L 293.2992 112.107202 
L 295.0848 95.902459 
L 296.8704 121.441516 
L 298.656 114.201529 
L 300.4416 90.0017 
L 302.2272 110.092365 
L 304.0128 85.354714 
L 305.7984 79.781857 
L 307.584 119.259495 
L 309.3696 89.11054 
L 311.1552 109.035752 
L 312.9408 63.074062 
L 314.7264 130.626479 
L 316.512 103.442022 
L 318.2976 102.582628 
L 320.0832 142.414421 
L 321.8688 98.112532 
L 323.6544 88.851392 
L 325.44 82.386398 
L 327.2256 93.574213 
L 329.0112 123.582595 
L 330.7968 143.137126 
L 332.5824 92.322974 
L 334.368 127.058914 
L 336.1536 56.175386 
L 337.9392 71.493867 
L 339.7248 91.994127 
L 341.5104 85.602614 
L 343.296 63.627893 
L 345.0816 112.063522 
L 346.8672 101.088665 
L 348.6528 111.879065 
L 350.4384 63.149091 
L 352.224 70.959986 
L 354.0096 79.592383 
L 355.7952 84.583335 
L 357.5808 99.93465 
L 359.3664 110.866256 
L 361.152 95.388896 
L 362.9376 73.756602 
L 364.7232 115.223091 
L 366.5088 104.443184 
L 368.2944 108.163702 
L 370.08 89.549756 
L 371.8656 120.02402 
L 373.6512 109.792847 
L 375.4368 136.073343 
L 377.2224 87.810633 
L 379.008 80.240699 
L 380.7936 134.702948 
L 382.5792 108.283589 
L 384.3648 115.847268 
L 386.1504 74.790177 
L 387.936 114.053978 
L 389.7216 130.237028 
L 391.5072 58.654153 
L 393.2928 132.338854 
L 395.0784 110.378691 
L 396.864 106.689791 
L 398.6496 100.340153 
L 400.4352 66.52076 
L 402.2208 104.436564 
L 404.0064 117.161182 
L 405.792 53.714122 
L 407.5776 136.363771 
L 409.3632 112.005631 
L 411.1488 107.838758 
L 412.9344 107.511384 
L 412.9344 107.511384 
" style="fill:none;stroke:#1f77b4;stroke-linecap:square;stroke-width:1.5;"/>
   </g>
   <g id="patch_3">
    <path d="M 57.6 162.432 
L 57.6 41.472 
" style="fill:none;stroke:#000000;stroke-linecap:square;stroke-linejoin:miter;stroke-width:0.8;"/>
   </g>
   <g id="patch_4">
    <path d="M 414.72 162.432 
L 414.72 41.472 
" style="fill:none;stroke:#000000;stroke-linecap:square;stroke-linejoin:miter;stroke-width:0.8;"/>
   </g>
   <g id="patch_5">
    <path d="M 57.6 162.432 
L 414.72 162.432 
" style="fill:none;stroke:#000000;stroke-linecap:square;stroke-linejoin:miter;stroke-width:0.8;"/>
   </g>
   <g id="patch_6">
    <path d="M 57.6 41.472 
L 414.72 41.472 
" style="fill:none;stroke:#000000;stroke-linecap:square;stroke-linejoin:miter;stroke-width:0.8;"/>
   </g>
  </g>
  <g id="axes_2">
   <g id="patch_7">
    <path d="M 57.6 307.584 
L 414.72 307.584 
L 414.72 186.624 
L 57.6 186.624 
z
" style="fill:#ffffff;"/>
   </g>
   <g id="matplotlib.axis_3"/>
   <g id="matplotlib.axis_4"/>
   <g id="line2d_2">
    <path clip-path="url(#p5fba904e1e)" d="M 57.6 241.549125 
L 59.3856 239.621144 
L 61.1712 254.60513 
L 62.9568 247.075715 
L 64.7424 237.554825 
L 66.528 245.291093 
L 68.3136 242.520557 
L 70.0992 276.58012 
L 71.8848 286.372212 
L 73.6704 251.296192 
L 75.456 243.51025 
L 77.2416 266.660664 
L 79.0272 209.082664 
L 80.8128 192.070741 
L 82.5984 265.322944 
L 84.384 281.216913 
L 86.1696 258.820104 
L 87.9552 276.483002 
L 89.7408 267.930771 
L 91.5264 242.018134 
L 93.312 274.863336 
L 95.0976 238.251693 
L 96.8832 223.169543 
L 98.6688 201.04908 
L 100.4544 225.376428 
L 102.24 235.892886 
L 104.0256 267.889415 
L 105.8112 267.283945 
L 107.5968 258.514891 
L 109.3824 282.71374 
L 111.168 217.591149 
L 112.9536 248.566102 
L 114.7392 207.41051 
L 116.5248 205.723056 
L 118.3104 220.928 
L 120.096 227.893945 
L 121.8816 220.273361 
L 123.6672 268.264593 
L 125.4528 267.123258 
L 127.2384 239.963474 
L 129.024 276.157645 
L 130.8096 231.851978 
L 132.5952 251.184612 
L 134.3808 266.470846 
L 136.1664 231.264942 
L 137.952 233.195351 
L 139.7376 186.624 
L 141.5232 234.856207 
L 143.3088 253.897639 
L 145.0944 258.880734 
L 146.88 307.584 
L 148.6656 268.016587 
L 150.4512 269.95643 
L 152.2368 262.977427 
L 154.0224 279.285237 
L 155.808 215.951777 
L 157.5936 208.255768 
L 159.3792 233.980689 
L 161.1648 299.525421 
L 162.9504 246.009392 
L 164.736 232.777111 
L 166.5216 221.96985 
L 170.0928 268.679047 
L 171.8784 285.468371 
L 173.664 290.71154 
L 175.4496 256.18423 
L 177.2352 232.815766 
L 179.0208 263.856632 
L 180.8064 277.770231 
L 182.592 231.136095 
L 184.3776 190.501357 
L 186.1632 249.153609 
L 187.9488 219.259035 
L 189.7344 202.733689 
L 191.52 223.33608 
L 193.3056 233.76069 
L 195.0912 224.7266 
L 196.8768 257.259635 
L 198.6624 206.618565 
L 200.448 216.127399 
L 202.2336 251.070108 
L 204.0192 233.924097 
L 205.8048 235.065773 
L 207.5904 268.996309 
L 209.376 285.20314 
L 211.1616 290.591365 
L 212.9472 220.016091 
L 214.7328 240.488258 
L 216.5184 259.06825 
L 218.304 249.691344 
L 220.0896 270.053183 
L 221.8752 229.266777 
L 223.6608 220.412554 
L 225.4464 242.59786 
L 227.232 248.748263 
L 229.0176 238.146766 
L 230.8032 232.228444 
L 232.5888 189.694029 
L 234.3744 186.624 
L 236.16 263.979709 
L 237.9456 263.87248 
L 239.7312 257.494898 
L 241.5168 249.843645 
L 243.3024 239.255103 
L 245.088 295.096998 
L 246.8736 275.475421 
L 248.6592 242.686097 
L 250.4448 262.756859 
L 252.2304 215.018343 
L 254.016 215.02667 
L 257.5872 295.272998 
L 259.3728 281.000822 
L 261.1584 249.313657 
L 262.944 238.707077 
L 264.7296 293.141409 
L 266.5152 202.339041 
L 268.3008 216.463989 
L 270.0864 255.099079 
L 271.872 260.504473 
L 273.6576 242.934353 
L 275.4432 232.603072 
L 277.2288 299.536696 
L 279.0144 239.142465 
L 280.8 238.553541 
L 282.5856 284.225737 
L 284.3712 216.197064 
L 286.1568 232.8558 
L 289.728 307.584 
L 291.5136 307.584 
L 295.0848 197.631474 
L 296.8704 227.199385 
L 298.656 263.408858 
L 300.4416 260.352453 
L 302.2272 264.290868 
L 304.0128 230.675926 
L 305.7984 239.648382 
L 307.584 291.378339 
L 309.3696 251.57625 
L 311.1552 245.378375 
L 312.9408 186.624 
L 314.7264 253.323951 
L 316.512 235.677517 
L 318.2976 241.501416 
L 320.0832 299.3065 
L 321.8688 271.670252 
L 323.6544 247.481634 
L 325.44 211.64975 
L 327.2256 220.222264 
L 329.0112 267.773425 
L 330.7968 293.921464 
L 332.5824 239.635591 
L 334.368 273.715403 
L 336.1536 203.006842 
L 337.9392 219.835568 
L 339.7248 244.489001 
L 341.5104 234.809943 
L 343.296 201.902065 
L 345.0816 248.18053 
L 346.8672 246.145123 
L 348.6528 260.57991 
L 350.4384 205.937881 
L 352.224 210.046835 
L 354.0096 220.983735 
L 355.7952 229.759508 
L 357.5808 251.126477 
L 359.3664 267.228829 
L 361.152 245.031341 
L 362.9376 211.68314 
L 364.7232 259.135355 
L 366.5088 262.221612 
L 368.2944 255.00667 
L 370.08 213.488115 
L 371.8656 247.399566 
L 373.6512 259.016291 
L 375.4368 294.609195 
L 377.2224 239.693121 
L 379.008 221.466293 
L 380.7936 272.429195 
L 382.5792 255.13116 
L 384.3648 273.349432 
L 386.1504 231.433618 
L 387.936 261.903008 
L 389.7216 269.026893 
L 391.5072 193.601642 
L 393.2928 275.816002 
L 395.0784 264.754464 
L 396.864 251.987981 
L 398.6496 226.039696 
L 400.4352 193.302339 
L 402.2208 250.151453 
L 404.0064 272.858419 
L 405.792 206.07777 
L 407.5776 284.878138 
L 409.3632 264.811302 
L 411.1488 273.967272 
L 412.9344 278.297253 
L 412.9344 278.297253 
" style="fill:none;stroke:#1f77b4;stroke-linecap:square;stroke-width:1.5;"/>
   </g>
   <g id="patch_8">
    <path d="M 57.6 307.584 
L 57.6 186.624 
" style="fill:none;stroke:#000000;stroke-linecap:square;stroke-linejoin:miter;stroke-width:0.8;"/>
   </g>
   <g id="patch_9">
    <path d="M 414.72 307.584 
L 414.72 186.624 
" style="fill:none;stroke:#000000;stroke-linecap:square;stroke-linejoin:miter;stroke-width:0.8;"/>
   </g>
   <g id="patch_10">
    <path d="M 57.6 307.584 
L 414.72 307.584 
" style="fill:none;stroke:#000000;stroke-linecap:square;stroke-linejoin:miter;stroke-width:0.8;"/>
   </g>
   <g id="patch_11">
    <path d="M 57.6 186.624 
L 414.72 186.624 
" style="fill:none;stroke:#000000;stroke-linecap:square;stroke-linejoin:miter;stroke-width:0.8;"/>
   </g>
  </g>
 </g>
 <defs>
  <clipPath id="p47a0207d9e">
   <rect height="120.96" width="357.12" x="57.6" y="41.472"/>
  </clipPath>
  <clipPath id="p5fba904e1e">
   <rect height="120.96" width="357.12" x="57.6" y="186.624"/>
  </clipPath>
 </defs>
</svg>
