<?xml version="1.0" encoding="utf-8" standalone="no"?>
<!DOCTYPE svg PUBLIC "-//W3C//DTD SVG 1.1//EN"
  "http://www.w3.org/Graphics/SVG/1.1/DTD/svg11.dtd">
<!-- Created with matplotlib (https://matplotlib.org/) -->
<svg height="345.6pt" version="1.1" viewBox="0 0 460.8 345.6" width="460.8pt" xmlns="http://www.w3.org/2000/svg" xmlns:xlink="http://www.w3.org/1999/xlink">
 <metadata>
  <rdf:RDF xmlns:cc="http://creativecommons.org/ns#" xmlns:dc="http://purl.org/dc/elements/1.1/" xmlns:rdf="http://www.w3.org/1999/02/22-rdf-syntax-ns#">
   <cc:Work>
    <dc:type rdf:resource="http://purl.org/dc/dcmitype/StillImage"/>
    <dc:date>2022-04-20T03:13:02.910610</dc:date>
    <dc:format>image/svg+xml</dc:format>
    <dc:creator>
     <cc:Agent>
      <dc:title>Matplotlib v3.3.1, https://matplotlib.org/</dc:title>
     </cc:Agent>
    </dc:creator>
   </cc:Work>
  </rdf:RDF>
 </metadata>
 <defs>
  <style type="text/css">*{stroke-linecap:butt;stroke-linejoin:round;}</style>
 </defs>
 <g id="figure_1">
  <g id="patch_1">
   <path d="M 0 345.6 
L 460.8 345.6 
L 460.8 0 
L 0 0 
z
" style="fill:#ffffff;"/>
  </g>
  <g id="axes_1">
   <g id="patch_2">
    <path d="M 57.6 162.432 
L 414.72 162.432 
L 414.72 41.472 
L 57.6 41.472 
z
" style="fill:#ffffff;"/>
   </g>
   <g id="matplotlib.axis_1"/>
   <g id="matplotlib.axis_2"/>
   <g id="line2d_1">
    <path clip-path="url(#p4d44ce754a)" d="M 57.6 49.262198 
L 59.3856 51.6081 
L 61.1712 174.552189 
L 62.9568 67.109346 
L 64.7424 80.358406 
L 66.528 100.114672 
L 68.3136 220.750868 
L 70.0992 3.592526 
L 71.8848 102.351128 
L 73.6704 190.571357 
L 75.456 106.478301 
L 77.2416 141.148712 
L 79.0272 156.641862 
L 80.8128 245.389517 
L 82.5984 160.039261 
L 84.384 114.648389 
L 87.9552 9.002589 
L 89.7408 34.109991 
L 91.5264 108.383487 
L 93.312 131.981627 
L 96.8832 166.41526 
L 98.6688 136.655682 
L 100.4544 112.384372 
L 102.24 59.282999 
L 104.0256 215.319167 
L 105.8112 114.111742 
L 107.5968 135.378899 
L 109.3824 105.537334 
L 111.168 64.199096 
L 112.9536 112.475221 
L 114.7392 94.859465 
L 116.5248 39.124776 
L 118.3104 161.986094 
L 120.096 139.976057 
L 121.8816 113.06373 
L 123.6672 37.54206 
L 125.4528 113.492166 
L 127.2384 60.273779 
L 129.024 83.67215 
L 130.8096 94.199165 
L 132.5952 87.73489 
L 134.3808 71.445402 
L 136.1664 114.229134 
L 137.952 102.442115 
L 139.7376 15.129729 
L 141.5232 146.154138 
L 143.3088 145.12891 
L 145.0944 202.838765 
L 146.88 98.139022 
L 148.6656 68.827068 
L 150.4512 15.072649 
L 152.2368 59.27938 
L 154.0224 131.277238 
L 155.808 134.533602 
L 157.5936 114.540714 
L 159.3792 121.550067 
L 161.1648 134.663974 
L 162.9504 71.055489 
L 164.736 111.526303 
L 166.5216 138.823057 
L 168.3072 123.867933 
L 170.0928 114.266792 
L 171.8784 117.250605 
L 173.664 105.477068 
L 175.4496 41.427886 
L 177.2352 145.395883 
L 179.0208 198.252115 
L 180.8064 59.434044 
L 182.592 128.136527 
L 184.3776 165.362991 
L 186.1632 109.592896 
L 187.9488 110.617807 
L 189.7344 147.74395 
L 191.52 96.629448 
L 193.3056 155.209882 
L 195.0912 90.030336 
L 196.442096 -1 
M 197.277174 -1 
L 198.6624 100.347276 
L 200.448 17.378411 
L 202.2336 99.653313 
L 204.0192 32.641947 
L 205.8048 65.831331 
L 207.5904 71.210348 
L 209.376 116.37217 
L 211.1616 87.298172 
L 212.9472 135.430843 
L 214.7328 130.34905 
L 216.5184 97.977519 
L 218.304 112.59643 
L 220.0896 119.109928 
L 221.8752 117.044548 
L 223.6608 87.595566 
L 225.4464 88.487423 
L 227.232 119.377671 
L 229.0176 26.645046 
L 230.8032 64.504511 
L 232.5888 70.043847 
L 234.3744 99.007747 
L 236.16 21.752688 
L 237.9456 163.391237 
L 239.7312 85.540492 
L 241.5168 191.516305 
L 243.3024 213.009702 
L 245.088 112.307346 
L 246.8736 114.763651 
L 248.6592 69.424641 
L 250.4448 113.739312 
L 252.2304 119.167718 
L 254.016 178.763494 
L 255.8016 124.754743 
L 257.5872 145.979735 
L 259.3728 142.504804 
L 261.1584 110.020517 
L 262.944 158.549491 
L 264.7296 110.372397 
L 266.5152 58.3624 
L 268.3008 91.770888 
L 270.0864 96.132939 
L 271.872 112.327977 
L 273.6576 90.952065 
L 275.4432 139.867481 
L 277.2288 164.313886 
L 279.0144 47.933543 
L 280.8 109.465848 
L 282.5856 124.980652 
L 284.3712 74.190841 
L 286.1568 119.173692 
L 287.9424 56.14705 
L 289.728 44.056717 
L 291.5136 108.377706 
L 293.2992 107.517355 
L 295.0848 182.032932 
L 296.8704 135.186389 
L 298.656 42.814722 
L 300.4416 174.708493 
L 302.2272 27.418764 
L 304.0128 184.255578 
L 305.7984 130.192855 
L 307.472942 -1 
M 307.675428 -1 
L 309.3696 160.228972 
L 311.1552 100.798892 
L 312.9408 101.439965 
L 316.512 132.543019 
L 318.2976 133.701964 
L 320.0832 90.835963 
L 321.8688 38.649804 
L 323.6544 117.337946 
L 325.44 124.066969 
L 327.2256 113.829429 
L 329.0112 75.430579 
L 330.7968 140.242491 
L 332.5824 160.078154 
L 334.368 88.529187 
L 336.1536 116.561981 
L 337.9392 125.24863 
L 339.7248 82.563005 
L 341.5104 73.378767 
L 343.296 82.08484 
L 345.0816 59.202655 
L 346.8672 48.696338 
L 348.6528 124.050921 
L 350.4384 121.115716 
L 352.224 197.390981 
L 354.0096 50.27849 
L 355.7952 125.126335 
L 357.5808 169.953715 
L 359.3664 172.510849 
L 361.152 35.077223 
L 362.9376 123.788664 
L 364.7232 117.608341 
L 366.5088 233.653301 
L 368.2944 155.292798 
L 370.08 152.755849 
L 371.8656 65.080527 
L 373.6512 71.810141 
L 375.4368 72.529048 
L 377.2224 14.157426 
L 379.008 60.518738 
L 380.7936 140.455196 
L 382.5792 112.150275 
L 384.3648 53.613072 
L 386.1504 55.135196 
L 387.936 122.519085 
L 389.7216 17.852314 
L 391.5072 56.092976 
L 393.2928 136.077198 
L 395.0784 204.404557 
L 396.864 124.424517 
L 398.6496 201.121787 
L 400.4352 98.827544 
L 402.2208 74.662759 
L 404.0064 79.513327 
L 405.792 61.068603 
L 407.5776 58.574617 
L 409.3632 34.35367 
L 411.1488 114.163375 
L 412.9344 107.941155 
L 412.9344 107.941155 
" style="fill:none;stroke:#1f77b4;stroke-linecap:square;stroke-width:1.5;"/>
   </g>
   <g id="patch_3">
    <path d="M 57.6 162.432 
L 57.6 41.472 
" style="fill:none;stroke:#000000;stroke-linecap:square;stroke-linejoin:miter;stroke-width:0.8;"/>
   </g>
   <g id="patch_4">
    <path d="M 414.72 162.432 
L 414.72 41.472 
" style="fill:none;stroke:#000000;stroke-linecap:square;stroke-linejoin:miter;stroke-width:0.8;"/>
   </g>
   <g id="patch_5">
    <path d="M 57.6 162.432 
L 414.72 162.432 
" style="fill:none;stroke:#000000;stroke-linecap:square;stroke-linejoin:miter;stroke-width:0.8;"/>
   </g>
   <g id="patch_6">
    <path d="M 57.6 41.472 
L 414.72 41.472 
" style="fill:none;stroke:#000000;stroke-linecap:square;stroke-linejoin:miter;stroke-width:0.8;"/>
   </g>
  </g>
  <g id="axes_2">
   <g id="patch_7">
    <path d="M 57.6 307.584 
L 414.72 307.584 
L 414.72 186.624 
L 57.6 186.624 
z
" style="fill:#ffffff;"/>
   </g>
   <g id="matplotlib.axis_3"/>
   <g id="matplotlib.axis_4"/>
   <g id="line2d_2">
    <path clip-path="url(#p907e850fc3)" d="M 57.6 194.50053 
L 59.3856 206.596258 
L 61.1712 307.584 
L 62.9568 210.779879 
L 64.7424 222.61769 
L 66.528 246.704397 
L 68.3136 307.584 
L 70.0992 186.624 
L 73.6704 307.584 
L 75.456 261.662146 
L 77.2416 287.423036 
L 79.0272 281.80269 
L 80.8128 307.584 
L 82.5984 294.04515 
L 84.384 271.330968 
L 86.1696 225.036134 
L 87.9552 186.624 
L 89.7408 189.478013 
L 91.5264 269.854646 
L 93.312 297.364228 
L 95.0976 293.388145 
L 96.8832 271.832403 
L 98.6688 230.946282 
L 100.4544 237.19987 
L 102.24 215.396934 
L 104.0256 307.584 
L 105.8112 281.600858 
L 107.5968 307.175435 
L 109.3824 269.725092 
L 111.168 212.213884 
L 112.9536 249.340444 
L 114.7392 226.286887 
L 116.5248 186.624 
L 118.3104 290.749868 
L 120.096 277.352369 
L 121.8816 259.687989 
L 123.6672 187.95344 
L 125.4528 265.715379 
L 127.2384 214.665667 
L 129.024 234.976785 
L 130.8096 237.367818 
L 132.5952 229.179194 
L 134.3808 222.153767 
L 136.1664 272.385123 
L 137.952 252.977814 
L 139.7376 186.624 
L 141.5232 272.258869 
L 143.3088 277.532466 
L 145.0944 307.584 
L 146.88 246.020283 
L 148.6656 222.740098 
L 150.4512 186.624 
L 152.2368 215.589002 
L 154.0224 279.471598 
L 155.808 274.677161 
L 157.5936 252.577759 
L 159.3792 265.37715 
L 161.1648 285.586443 
L 162.9504 219.445536 
L 164.736 247.367046 
L 166.5216 265.392833 
L 168.3072 255.626873 
L 170.0928 263.384335 
L 171.8784 281.134473 
L 173.664 265.437983 
L 175.4496 186.624 
L 177.2352 284.832667 
L 179.0208 307.584 
L 180.8064 217.962989 
L 182.592 270.347464 
L 184.3776 295.775143 
L 186.1632 244.026995 
L 187.9488 250.086821 
L 189.7344 289.839777 
L 191.52 245.111583 
L 193.3056 307.584 
L 195.0912 240.796256 
L 196.8768 186.624 
L 198.6624 241.51992 
L 200.448 186.624 
L 202.2336 252.35999 
L 204.0192 186.624 
L 205.8048 202.365038 
L 207.5904 212.880267 
L 209.376 270.356569 
L 211.1616 235.476416 
L 212.9472 270.023793 
L 214.7328 265.989502 
L 216.5184 242.539004 
L 218.304 260.751652 
L 220.0896 268.881297 
L 221.8752 269.090492 
L 223.6608 238.785091 
L 225.4464 237.443812 
L 227.232 268.338664 
L 229.0176 186.624 
L 230.8032 204.298136 
L 232.5888 197.951202 
L 234.3744 224.449444 
L 236.16 186.624 
L 237.9456 307.584 
L 239.7312 242.124077 
L 241.5168 307.584 
L 243.3024 307.584 
L 245.088 268.267034 
L 246.8736 262.842901 
L 248.6592 211.504352 
L 250.4448 253.687184 
L 252.2304 252.432297 
L 254.016 304.35023 
L 255.8016 256.232814 
L 257.5872 295.638296 
L 259.3728 304.818569 
L 261.1584 268.339962 
L 262.944 303.56451 
L 264.7296 249.217514 
L 266.5152 203.879299 
L 268.3008 246.107523 
L 271.872 250.14401 
L 273.6576 218.596969 
L 275.4432 275.024471 
L 277.2288 307.584 
L 279.0144 202.898679 
L 280.8 261.569347 
L 282.5856 273.349979 
L 284.3712 218.02483 
L 286.1568 260.268061 
L 287.9424 202.868001 
L 289.728 204.784266 
L 291.5136 273.960599 
L 293.2992 246.841331 
L 295.0848 283.761947 
L 296.8704 240.944258 
L 298.656 192.022051 
L 300.4416 307.584 
L 302.2272 186.624 
L 304.0128 307.584 
L 305.7984 290.05938 
L 307.584 186.624 
L 309.3696 307.584 
L 311.1552 237.141515 
L 312.9408 219.954336 
L 314.7264 240.13641 
L 316.512 264.778514 
L 318.2976 272.620752 
L 320.0832 247.728043 
L 321.8688 212.207524 
L 323.6544 275.968188 
L 325.44 253.330322 
L 327.2256 240.477479 
L 329.0112 219.621409 
L 330.7968 291.026828 
L 332.5824 307.390771 
L 334.368 235.185676 
L 336.1536 263.393437 
L 337.9392 273.590331 
L 339.7248 235.057879 
L 341.5104 222.586096 
L 343.296 220.359011 
L 345.0816 195.319663 
L 346.8672 193.752797 
L 348.6528 272.751765 
L 350.4384 263.904506 
L 352.224 307.584 
L 354.0096 191.669843 
L 355.7952 270.302509 
L 357.5808 307.584 
L 359.3664 307.584 
L 361.152 186.624 
L 362.9376 261.715203 
L 364.7232 261.520605 
L 366.5088 307.584 
L 368.2944 302.135766 
L 370.08 276.694207 
L 371.8656 192.456074 
L 373.6512 221.033585 
L 375.4368 231.0649 
L 377.2224 186.624 
L 379.008 201.744332 
L 380.7936 278.181443 
L 382.5792 258.997847 
L 384.3648 211.115235 
L 386.1504 211.778638 
L 387.936 270.368114 
L 389.7216 186.624 
L 391.5072 191.040465 
L 393.2928 279.554346 
L 395.0784 307.584 
L 396.864 269.722707 
L 398.6496 307.584 
L 400.4352 225.609122 
L 402.2208 220.377647 
L 404.0064 235.210564 
L 405.792 213.432251 
L 407.5776 207.088983 
L 409.3632 187.15934 
L 411.1488 280.291889 
L 412.9344 278.727024 
L 412.9344 278.727024 
" style="fill:none;stroke:#1f77b4;stroke-linecap:square;stroke-width:1.5;"/>
   </g>
   <g id="patch_8">
    <path d="M 57.6 307.584 
L 57.6 186.624 
" style="fill:none;stroke:#000000;stroke-linecap:square;stroke-linejoin:miter;stroke-width:0.8;"/>
   </g>
   <g id="patch_9">
    <path d="M 414.72 307.584 
L 414.72 186.624 
" style="fill:none;stroke:#000000;stroke-linecap:square;stroke-linejoin:miter;stroke-width:0.8;"/>
   </g>
   <g id="patch_10">
    <path d="M 57.6 307.584 
L 414.72 307.584 
" style="fill:none;stroke:#000000;stroke-linecap:square;stroke-linejoin:miter;stroke-width:0.8;"/>
   </g>
   <g id="patch_11">
    <path d="M 57.6 186.624 
L 414.72 186.624 
" style="fill:none;stroke:#000000;stroke-linecap:square;stroke-linejoin:miter;stroke-width:0.8;"/>
   </g>
  </g>
 </g>
 <defs>
  <clipPath id="p4d44ce754a">
   <rect height="120.96" width="357.12" x="57.6" y="41.472"/>
  </clipPath>
  <clipPath id="p907e850fc3">
   <rect height="120.96" width="357.12" x="57.6" y="186.624"/>
  </clipPath>
 </defs>
</svg>
