<?xml version="1.0" encoding="utf-8" standalone="no"?>
<!DOCTYPE svg PUBLIC "-//W3C//DTD SVG 1.1//EN"
  "http://www.w3.org/Graphics/SVG/1.1/DTD/svg11.dtd">
<!-- Created with matplotlib (https://matplotlib.org/) -->
<svg height="345.6pt" version="1.1" viewBox="0 0 460.8 345.6" width="460.8pt" xmlns="http://www.w3.org/2000/svg" xmlns:xlink="http://www.w3.org/1999/xlink">
 <metadata>
  <rdf:RDF xmlns:cc="http://creativecommons.org/ns#" xmlns:dc="http://purl.org/dc/elements/1.1/" xmlns:rdf="http://www.w3.org/1999/02/22-rdf-syntax-ns#">
   <cc:Work>
    <dc:type rdf:resource="http://purl.org/dc/dcmitype/StillImage"/>
    <dc:date>2022-05-23T04:40:05.770651</dc:date>
    <dc:format>image/svg+xml</dc:format>
    <dc:creator>
     <cc:Agent>
      <dc:title>Matplotlib v3.3.1, https://matplotlib.org/</dc:title>
     </cc:Agent>
    </dc:creator>
   </cc:Work>
  </rdf:RDF>
 </metadata>
 <defs>
  <style type="text/css">*{stroke-linecap:butt;stroke-linejoin:round;}</style>
 </defs>
 <g id="figure_1">
  <g id="patch_1">
   <path d="M 0 345.6 
L 460.8 345.6 
L 460.8 0 
L 0 0 
z
" style="fill:#ffffff;"/>
  </g>
  <g id="axes_1">
   <g id="patch_2">
    <path d="M 57.6 162.432 
L 414.72 162.432 
L 414.72 41.472 
L 57.6 41.472 
z
" style="fill:#ffffff;"/>
   </g>
   <g id="matplotlib.axis_1"/>
   <g id="matplotlib.axis_2"/>
   <g id="line2d_1">
    <path clip-path="url(#p0504655a87)" d="M 57.6 101.952 
L 59.3856 97.477868 
L 61.1712 93.638369 
L 62.9568 90.978119 
L 64.7424 89.87446 
L 66.528 90.483942 
L 68.3136 92.720111 
L 70.0992 96.26578 
L 75.456 109.24595 
L 77.2416 112.297827 
L 79.0272 113.882198 
L 80.8128 113.774329 
L 82.5984 111.98952 
L 84.384 108.780938 
L 86.1696 104.603704 
L 89.7408 95.766715 
L 91.5264 92.360444 
L 93.312 90.314688 
L 95.0976 89.919628 
L 96.8832 91.231302 
L 98.6688 94.063655 
L 100.4544 98.014931 
L 104.0256 106.953162 
L 105.8112 110.672272 
L 107.5968 113.154455 
L 109.3824 114.047623 
L 111.168 113.225086 
L 112.9536 110.803517 
L 114.7392 107.126404 
L 118.3104 98.195974 
L 120.096 94.209396 
L 121.8816 91.321069 
L 123.6672 89.940688 
L 125.4528 90.264053 
L 127.2384 92.245296 
L 129.024 95.603388 
L 130.8096 99.862 
L 132.5952 104.417068 
L 134.3808 108.622478 
L 136.1664 111.881714 
L 137.952 113.732467 
L 139.7376 113.912219 
L 141.5232 112.395472 
L 143.3088 109.397369 
L 145.0944 105.343177 
L 148.6656 96.435025 
L 150.4512 92.844643 
L 152.2368 90.546095 
L 154.0224 89.86542 
L 155.808 90.899167 
L 157.5936 93.500704 
L 159.3792 97.301017 
L 162.9504 106.248167 
L 164.736 110.125894 
L 166.5216 112.844194 
L 168.3072 114.01749 
L 170.0928 113.479354 
L 171.8784 111.306119 
L 173.664 107.806048 
L 179.0208 94.811287 
L 180.8064 91.706397 
L 182.592 90.054796 
L 184.3776 90.090755 
L 186.1632 91.809175 
L 187.9488 94.966304 
L 189.7344 99.114321 
L 193.3056 107.972417 
L 195.0912 111.426018 
L 196.8768 113.535776 
L 198.6624 114.002432 
L 200.448 112.759793 
L 202.2336 109.984121 
L 204.0192 106.069131 
L 207.5904 97.125326 
L 209.376 93.365146 
L 211.1616 90.822969 
L 212.9472 89.859391 
L 214.7328 90.611091 
L 216.5184 92.971444 
L 218.304 96.605644 
L 223.6608 109.546933 
L 225.4464 112.490515 
L 227.232 113.939259 
L 229.0176 113.68767 
L 230.8032 111.771432 
L 232.5888 108.462356 
L 234.3744 104.229818 
L 236.16 99.674182 
L 237.9456 95.441644 
L 239.7312 92.132568 
L 241.5168 90.21633 
L 243.3024 89.964741 
L 245.088 91.413485 
L 246.8736 94.357067 
L 248.6592 98.377953 
L 252.2304 107.298356 
L 254.016 110.932556 
L 255.8016 113.292909 
L 257.5872 114.044609 
L 259.3728 113.081031 
L 261.1584 110.538854 
L 262.944 106.778674 
L 266.5152 97.834869 
L 268.3008 93.919879 
L 270.0864 91.144207 
L 271.872 89.901568 
L 273.6576 90.368224 
L 275.4432 92.477982 
L 277.2288 95.931583 
L 282.5856 108.937696 
L 284.3712 112.094825 
L 286.1568 113.813245 
L 287.9424 113.849204 
L 289.728 112.197603 
L 291.5136 109.092713 
L 293.2992 104.974947 
L 296.8704 96.097952 
L 298.656 92.597881 
L 300.4416 90.424646 
L 302.2272 89.88651 
L 304.0128 91.059806 
L 305.7984 93.778106 
L 307.584 97.655833 
L 311.1552 106.602983 
L 312.9408 110.403296 
L 314.7264 113.004833 
L 316.512 114.03858 
L 318.2976 113.357905 
L 320.0832 111.059357 
L 321.8688 107.468975 
L 327.2256 94.506631 
L 329.0112 91.508528 
L 330.7968 89.991781 
L 332.5824 90.171533 
L 334.368 92.022286 
L 336.1536 95.281522 
L 337.9392 99.486932 
L 341.5104 108.300612 
L 343.296 111.658704 
L 345.0816 113.639947 
L 346.8672 113.963312 
L 348.6528 112.582931 
L 350.4384 109.694604 
L 352.224 105.708026 
L 355.7952 96.777596 
L 357.5808 93.100483 
L 359.3664 90.678914 
L 361.152 89.856377 
L 362.9376 90.749545 
L 364.7232 93.231728 
L 366.5088 96.950838 
L 370.08 105.889069 
L 371.8656 109.840345 
L 373.6512 112.672698 
L 375.4368 113.984372 
L 377.2224 113.589312 
L 379.008 111.543556 
L 380.7936 108.137285 
L 386.1504 95.123062 
L 387.936 91.91448 
L 389.7216 90.129671 
L 391.5072 90.021802 
L 393.2928 91.606173 
L 395.0784 94.65805 
L 396.864 98.744538 
L 400.4352 107.63822 
L 402.2208 111.183889 
L 404.0064 113.420058 
L 405.792 114.02954 
L 407.5776 112.925881 
L 409.3632 110.265631 
L 411.1488 106.426132 
L 412.9344 101.952 
L 412.9344 101.952 
" style="fill:none;stroke:#1f77b4;stroke-linecap:square;stroke-width:1.5;"/>
   </g>
   <g id="patch_3">
    <path d="M 57.6 162.432 
L 57.6 41.472 
" style="fill:none;stroke:#000000;stroke-linecap:square;stroke-linejoin:miter;stroke-width:0.8;"/>
   </g>
   <g id="patch_4">
    <path d="M 414.72 162.432 
L 414.72 41.472 
" style="fill:none;stroke:#000000;stroke-linecap:square;stroke-linejoin:miter;stroke-width:0.8;"/>
   </g>
   <g id="patch_5">
    <path d="M 57.6 162.432 
L 414.72 162.432 
" style="fill:none;stroke:#000000;stroke-linecap:square;stroke-linejoin:miter;stroke-width:0.8;"/>
   </g>
   <g id="patch_6">
    <path d="M 57.6 41.472 
L 414.72 41.472 
" style="fill:none;stroke:#000000;stroke-linecap:square;stroke-linejoin:miter;stroke-width:0.8;"/>
   </g>
  </g>
  <g id="axes_2">
   <g id="patch_7">
    <path d="M 57.6 307.584 
L 414.72 307.584 
L 414.72 186.624 
L 57.6 186.624 
z
" style="fill:#ffffff;"/>
   </g>
   <g id="matplotlib.axis_3"/>
   <g id="matplotlib.axis_4"/>
   <g id="line2d_2">
    <path clip-path="url(#pa0da9d6763)" d="M 57.6 247.190333 
L 59.3856 252.466026 
L 61.1712 244.873938 
L 62.9568 234.648652 
L 64.7424 232.133743 
L 66.528 237.073667 
L 68.3136 242.344139 
L 70.0992 243.698111 
L 71.8848 245.791882 
L 75.456 264.429795 
L 77.2416 258.57215 
L 79.0272 239.043026 
L 80.8128 230.674856 
L 82.5984 245.995409 
L 84.384 265.463517 
L 86.1696 268.335626 
L 87.9552 258.501009 
L 89.7408 251.134737 
L 91.5264 253.831603 
L 93.312 255.697289 
L 95.0976 234.14269 
L 96.8832 196.648445 
L 98.6688 188.354255 
L 102.24 258.638596 
L 104.0256 271.311283 
L 107.5968 284.95099 
L 109.3824 278.235381 
L 111.168 261.239875 
L 112.9536 247.668741 
L 114.7392 238.553826 
L 116.5248 230.316488 
L 118.3104 226.959748 
L 120.096 231.585709 
L 121.8816 237.945327 
L 123.6672 240.352068 
L 125.4528 242.487266 
L 127.2384 246.637184 
L 129.024 246.908023 
L 130.8096 243.030653 
L 132.5952 245.861372 
L 134.3808 259.330843 
L 136.1664 270.037702 
L 137.952 264.268167 
L 139.7376 247.782278 
L 141.5232 238.500203 
L 143.3088 241.800925 
L 145.0944 247.109789 
L 148.6656 250.348055 
L 150.4512 251.339055 
L 152.2368 246.855717 
L 154.0224 238.05978 
L 155.808 231.042726 
L 157.5936 231.537749 
L 159.3792 241.1281 
L 161.1648 252.683519 
L 162.9504 254.638214 
L 164.736 245.966638 
L 166.5216 239.41397 
L 168.3072 245.776429 
L 170.0928 262.596897 
L 171.8784 275.189986 
L 173.664 267.766963 
L 175.4496 246.460085 
L 177.2352 238.365836 
L 179.0208 248.938422 
L 180.8064 250.235343 
L 182.592 232.265733 
L 184.3776 220.502907 
L 186.1632 226.243273 
L 187.9488 234.435318 
L 189.7344 241.210147 
L 191.52 252.146984 
L 193.3056 261.102698 
L 195.0912 262.191938 
L 196.8768 258.53468 
L 198.6624 255.175076 
L 200.448 258.00273 
L 202.2336 262.690797 
L 204.0192 253.872117 
L 205.8048 238.103853 
L 207.5904 238.795246 
L 209.376 247.349544 
L 211.1616 239.001214 
L 212.9472 224.452341 
L 214.7328 226.251543 
L 216.5184 237.532929 
L 218.304 244.760867 
L 220.0896 250.769568 
L 221.8752 257.571991 
L 223.6608 260.736458 
L 225.4464 261.446904 
L 227.232 262.900253 
L 229.0176 261.527491 
L 230.8032 251.565057 
L 232.5888 236.369712 
L 234.3744 229.671515 
L 236.16 237.492517 
L 237.9456 247.561258 
L 239.7312 248.716152 
L 241.5168 246.44998 
L 243.3024 247.657986 
L 245.088 247.373173 
L 246.8736 242.436317 
L 248.6592 240.457664 
L 250.4448 242.853673 
L 252.2304 240.562935 
L 254.016 236.519292 
L 255.8016 244.77098 
L 257.5872 263.703169 
L 259.3728 275.394796 
L 261.1584 268.858299 
L 262.944 251.793693 
L 264.7296 241.178971 
L 266.5152 243.351768 
L 268.3008 248.256515 
L 270.0864 243.171734 
L 271.872 227.717601 
L 273.6576 218.013128 
L 275.4432 227.634971 
L 277.2288 245.801947 
L 279.0144 255.204288 
L 280.8 256.893179 
L 282.5856 257.307023 
L 284.3712 255.928815 
L 286.1568 254.907613 
L 287.9424 260.570155 
L 289.728 272.925151 
L 291.5136 274.675605 
L 293.2992 244.298923 
L 295.0848 202.157407 
L 296.8704 201.855821 
L 298.656 241.80521 
L 300.4416 260.775399 
L 302.2272 244.085014 
L 304.0128 236.381017 
L 305.7984 253.64463 
L 307.584 269.774677 
L 309.3696 264.608661 
L 311.1552 242.945606 
L 312.9408 228.917666 
L 314.7264 235.702305 
L 316.512 246.274076 
L 318.2976 252.276693 
L 320.0832 267.951437 
L 321.8688 281.026696 
L 323.6544 261.726279 
L 325.44 227.824175 
L 327.2256 221.154682 
L 329.0112 235.699359 
L 330.7968 240.776118 
L 332.5824 237.484149 
L 334.368 238.678775 
L 336.1536 242.112978 
L 337.9392 247.828633 
L 339.7248 256.536873 
L 341.5104 257.507941 
L 343.296 249.932875 
L 345.0816 249.756955 
L 346.8672 259.019771 
L 348.6528 261.283776 
L 350.4384 252.483393 
L 352.224 244.794875 
L 354.0096 242.580027 
L 355.7952 241.95377 
L 357.5808 244.29231 
L 359.3664 247.041487 
L 361.152 239.498822 
L 362.9376 228.676084 
L 364.7232 237.143992 
L 366.5088 254.729266 
L 368.2944 248.222307 
L 370.08 229.827428 
L 371.8656 237.215892 
L 373.6512 261.896142 
L 375.4368 272.520223 
L 377.2224 265.4718 
L 379.008 252.769151 
L 380.7936 245.863532 
L 382.5792 250.701233 
L 384.3648 256.802459 
L 386.1504 251.766504 
L 387.936 239.763509 
L 389.7216 228.919535 
L 391.5072 224.969291 
L 393.2928 235.083321 
L 395.0784 249.033823 
L 396.864 244.042728 
L 398.6496 228.985533 
L 400.4352 234.419799 
L 402.2208 256.898777 
L 404.0064 269.117295 
L 405.792 266.393188 
L 407.5776 261.440247 
L 409.3632 263.071302 
L 411.1488 272.554647 
L 412.9344 272.737869 
L 412.9344 272.737869 
" style="fill:none;stroke:#1f77b4;stroke-linecap:square;stroke-width:1.5;"/>
   </g>
   <g id="patch_8">
    <path d="M 57.6 307.584 
L 57.6 186.624 
" style="fill:none;stroke:#000000;stroke-linecap:square;stroke-linejoin:miter;stroke-width:0.8;"/>
   </g>
   <g id="patch_9">
    <path d="M 414.72 307.584 
L 414.72 186.624 
" style="fill:none;stroke:#000000;stroke-linecap:square;stroke-linejoin:miter;stroke-width:0.8;"/>
   </g>
   <g id="patch_10">
    <path d="M 57.6 307.584 
L 414.72 307.584 
" style="fill:none;stroke:#000000;stroke-linecap:square;stroke-linejoin:miter;stroke-width:0.8;"/>
   </g>
   <g id="patch_11">
    <path d="M 57.6 186.624 
L 414.72 186.624 
" style="fill:none;stroke:#000000;stroke-linecap:square;stroke-linejoin:miter;stroke-width:0.8;"/>
   </g>
  </g>
 </g>
 <defs>
  <clipPath id="p0504655a87">
   <rect height="120.96" width="357.12" x="57.6" y="41.472"/>
  </clipPath>
  <clipPath id="pa0da9d6763">
   <rect height="120.96" width="357.12" x="57.6" y="186.624"/>
  </clipPath>
 </defs>
</svg>
