<?xml version="1.0" encoding="utf-8" standalone="no"?>
<!DOCTYPE svg PUBLIC "-//W3C//DTD SVG 1.1//EN"
  "http://www.w3.org/Graphics/SVG/1.1/DTD/svg11.dtd">
<!-- Created with matplotlib (https://matplotlib.org/) -->
<svg height="345.6pt" version="1.1" viewBox="0 0 460.8 345.6" width="460.8pt" xmlns="http://www.w3.org/2000/svg" xmlns:xlink="http://www.w3.org/1999/xlink">
 <metadata>
  <rdf:RDF xmlns:cc="http://creativecommons.org/ns#" xmlns:dc="http://purl.org/dc/elements/1.1/" xmlns:rdf="http://www.w3.org/1999/02/22-rdf-syntax-ns#">
   <cc:Work>
    <dc:type rdf:resource="http://purl.org/dc/dcmitype/StillImage"/>
    <dc:date>2022-05-23T04:40:05.853452</dc:date>
    <dc:format>image/svg+xml</dc:format>
    <dc:creator>
     <cc:Agent>
      <dc:title>Matplotlib v3.3.1, https://matplotlib.org/</dc:title>
     </cc:Agent>
    </dc:creator>
   </cc:Work>
  </rdf:RDF>
 </metadata>
 <defs>
  <style type="text/css">*{stroke-linecap:butt;stroke-linejoin:round;}</style>
 </defs>
 <g id="figure_1">
  <g id="patch_1">
   <path d="M 0 345.6 
L 460.8 345.6 
L 460.8 0 
L 0 0 
z
" style="fill:#ffffff;"/>
  </g>
  <g id="axes_1">
   <g id="patch_2">
    <path d="M 57.6 162.432 
L 414.72 162.432 
L 414.72 41.472 
L 57.6 41.472 
z
" style="fill:#ffffff;"/>
   </g>
   <g id="matplotlib.axis_1"/>
   <g id="matplotlib.axis_2"/>
   <g id="line2d_1">
    <path clip-path="url(#pf68b207913)" d="M 57.6 101.952 
L 59.3856 93.003735 
L 61.1712 85.324738 
L 62.9568 80.004237 
L 64.7424 77.79692 
L 66.528 79.015883 
L 68.3136 83.488223 
L 70.0992 90.57956 
L 75.456 116.5399 
L 77.2416 122.643653 
L 79.0272 125.812396 
L 80.8128 125.596658 
L 82.5984 122.027041 
L 84.384 115.609876 
L 86.1696 107.255408 
L 89.7408 89.58143 
L 91.5264 82.768887 
L 93.312 78.677376 
L 95.0976 77.887257 
L 96.8832 80.510604 
L 98.6688 86.175309 
L 100.4544 94.077861 
L 104.0256 111.954324 
L 105.8112 119.392545 
L 107.5968 124.356909 
L 109.3824 126.143246 
L 111.168 124.498173 
L 112.9536 119.655035 
L 114.7392 112.300807 
L 118.3104 94.439948 
L 120.096 86.466792 
L 121.8816 80.690138 
L 123.6672 77.929375 
L 125.4528 78.576105 
L 127.2384 82.538592 
L 129.024 89.254776 
L 130.8096 97.772 
L 132.5952 106.882136 
L 134.3808 115.292957 
L 136.1664 121.811428 
L 137.952 125.512935 
L 139.7376 125.872438 
L 141.5232 122.838944 
L 143.3088 116.842738 
L 145.0944 108.734354 
L 148.6656 90.918049 
L 150.4512 83.737285 
L 152.2368 79.14019 
L 154.0224 77.778839 
L 155.808 79.846333 
L 157.5936 85.049409 
L 159.3792 92.650035 
L 162.9504 110.544334 
L 164.736 118.299789 
L 166.5216 123.736389 
L 168.3072 126.082979 
L 170.0928 125.006708 
L 171.8784 120.660238 
L 173.664 113.660096 
L 179.0208 87.670575 
L 180.8064 81.460795 
L 182.592 78.157592 
L 184.3776 78.229511 
L 186.1632 81.666349 
L 187.9488 87.980608 
L 189.7344 96.276641 
L 193.3056 113.992833 
L 195.0912 120.900036 
L 196.8768 125.119553 
L 198.6624 126.052864 
L 200.448 123.567586 
L 202.2336 118.016241 
L 204.0192 110.186263 
L 207.5904 92.298653 
L 209.376 84.778292 
L 211.1616 79.693939 
L 212.9472 77.766783 
L 214.7328 79.270182 
L 216.5184 83.990887 
L 218.304 91.259289 
L 223.6608 117.141866 
L 225.4464 123.029029 
L 227.232 125.926519 
L 229.0176 125.42334 
L 230.8032 121.590865 
L 232.5888 114.972713 
L 234.3744 106.507636 
L 236.16 97.396364 
L 237.9456 88.931287 
L 239.7312 82.313135 
L 241.5168 78.48066 
L 243.3024 77.977481 
L 245.088 80.874971 
L 246.8736 86.762134 
L 248.6592 94.803906 
L 252.2304 112.644711 
L 254.016 119.913113 
L 255.8016 124.633818 
L 257.5872 126.137217 
L 259.3728 124.210061 
L 261.1584 119.125708 
L 262.944 111.605347 
L 266.5152 93.717737 
L 268.3008 85.887759 
L 270.0864 80.336414 
L 271.872 77.851136 
L 273.6576 78.784447 
L 275.4432 83.003964 
L 277.2288 89.911167 
L 282.5856 115.923392 
L 284.3712 122.237651 
L 286.1568 125.674489 
L 287.9424 125.746408 
L 289.728 122.443205 
L 291.5136 116.233425 
L 293.2992 107.997894 
L 296.8704 90.243904 
L 298.656 83.243762 
L 300.4416 78.897292 
L 302.2272 77.821021 
L 304.0128 80.167611 
L 305.7984 85.604211 
L 307.584 93.359666 
L 311.1552 111.253965 
L 312.9408 118.854591 
L 314.7264 124.057667 
L 316.512 126.125161 
L 318.2976 124.76381 
L 320.0832 120.166715 
L 321.8688 112.985951 
L 327.2256 87.061262 
L 329.0112 81.065056 
L 330.7968 78.031562 
L 332.5824 78.391065 
L 334.368 82.092572 
L 336.1536 88.611043 
L 337.9392 97.021864 
L 339.7248 106.132 
L 341.5104 114.649224 
L 343.296 121.365408 
L 345.0816 125.327895 
L 346.8672 125.974625 
L 348.6528 123.213862 
L 350.4384 117.437208 
L 352.224 109.464052 
L 355.7952 91.603193 
L 357.5808 84.248965 
L 359.3664 79.405827 
L 361.152 77.760754 
L 362.9376 79.547091 
L 364.7232 84.511455 
L 366.5088 91.949676 
L 370.08 109.826139 
L 371.8656 117.728691 
L 373.6512 123.393396 
L 375.4368 126.016743 
L 377.2224 125.226624 
L 379.008 121.135113 
L 380.7936 114.32257 
L 386.1504 88.294124 
L 387.936 81.876959 
L 389.7216 78.307342 
L 391.5072 78.091604 
L 393.2928 81.260347 
L 395.0784 87.3641 
L 396.864 95.537077 
L 400.4352 113.32444 
L 402.2208 120.415777 
L 404.0064 124.888117 
L 405.792 126.10708 
L 407.5776 123.899763 
L 409.3632 118.579262 
L 411.1488 110.900265 
L 412.9344 101.952 
L 412.9344 101.952 
" style="fill:none;stroke:#1f77b4;stroke-linecap:square;stroke-width:1.5;"/>
   </g>
   <g id="patch_3">
    <path d="M 57.6 162.432 
L 57.6 41.472 
" style="fill:none;stroke:#000000;stroke-linecap:square;stroke-linejoin:miter;stroke-width:0.8;"/>
   </g>
   <g id="patch_4">
    <path d="M 414.72 162.432 
L 414.72 41.472 
" style="fill:none;stroke:#000000;stroke-linecap:square;stroke-linejoin:miter;stroke-width:0.8;"/>
   </g>
   <g id="patch_5">
    <path d="M 57.6 162.432 
L 414.72 162.432 
" style="fill:none;stroke:#000000;stroke-linecap:square;stroke-linejoin:miter;stroke-width:0.8;"/>
   </g>
   <g id="patch_6">
    <path d="M 57.6 41.472 
L 414.72 41.472 
" style="fill:none;stroke:#000000;stroke-linecap:square;stroke-linejoin:miter;stroke-width:0.8;"/>
   </g>
  </g>
  <g id="axes_2">
   <g id="patch_7">
    <path d="M 57.6 307.584 
L 414.72 307.584 
L 414.72 186.624 
L 57.6 186.624 
z
" style="fill:#ffffff;"/>
   </g>
   <g id="matplotlib.axis_3"/>
   <g id="matplotlib.axis_4"/>
   <g id="line2d_2">
    <path clip-path="url(#p79ca80cdde)" d="M 57.6 247.190333 
L 59.3856 247.991894 
L 61.1712 236.560307 
L 62.9568 223.67477 
L 64.7424 220.056203 
L 66.528 225.605608 
L 68.3136 233.11225 
L 70.0992 238.011891 
L 71.8848 244.457893 
L 75.456 271.723745 
L 77.2416 268.917977 
L 79.0272 250.973224 
L 80.8128 242.497185 
L 82.5984 256.032929 
L 84.384 272.292455 
L 86.1696 270.98733 
L 87.9552 256.599348 
L 89.7408 244.949452 
L 91.5264 244.240047 
L 93.312 244.059977 
L 95.0976 222.110318 
L 96.8832 186.624 
L 98.6688 186.624 
L 100.4544 218.893359 
L 102.24 259.211257 
L 104.0256 276.312444 
L 105.8112 286.88166 
L 107.5968 296.153445 
L 109.3824 290.331004 
L 111.168 272.512961 
L 112.9536 256.520258 
L 116.5248 231.079814 
L 118.3104 223.203722 
L 120.096 223.843105 
L 121.8816 227.314396 
L 123.6672 228.340756 
L 125.4528 230.799319 
L 127.2384 236.93048 
L 129.024 240.559412 
L 130.8096 240.940653 
L 132.5952 248.32644 
L 134.3808 266.001322 
L 136.1664 279.967416 
L 137.952 276.048635 
L 139.7376 259.742497 
L 141.5232 248.943675 
L 143.3088 249.246294 
L 145.0944 250.500966 
L 146.88 247.545186 
L 150.4512 242.231697 
L 152.2368 235.449812 
L 154.0224 225.973199 
L 155.808 219.989893 
L 157.5936 223.086453 
L 159.3792 236.477118 
L 161.1648 252.492569 
L 162.9504 258.934382 
L 164.736 254.140532 
L 166.5216 250.306165 
L 168.3072 257.841919 
L 170.0928 274.124251 
L 171.8784 284.544105 
L 173.664 273.621011 
L 175.4496 247.983694 
L 177.2352 235.342889 
L 179.0208 241.79771 
L 180.8064 239.98974 
L 182.592 220.368529 
L 184.3776 208.641662 
L 186.1632 216.100447 
L 189.7344 238.372468 
L 191.52 253.859832 
L 193.3056 267.123115 
L 195.0912 271.665956 
L 196.8768 270.118456 
L 198.6624 267.225508 
L 200.448 268.810523 
L 202.2336 270.722918 
L 204.0192 257.989248 
L 205.8048 237.722 
L 207.5904 233.968572 
L 209.376 238.762691 
L 211.1616 227.872183 
L 212.9472 212.359733 
L 214.7328 214.910634 
L 216.5184 228.552372 
L 221.8752 261.146038 
L 223.6608 268.331391 
L 225.4464 271.985418 
L 227.232 274.887512 
L 229.0176 273.263161 
L 230.8032 261.38449 
L 232.5888 242.880068 
L 234.3744 231.949333 
L 236.16 235.214699 
L 237.9456 241.050902 
L 239.7312 238.89672 
L 241.5168 234.71431 
L 243.3024 235.670727 
L 245.088 236.834658 
L 246.8736 234.841384 
L 248.6592 236.883618 
L 250.4448 243.807473 
L 252.2304 245.909291 
L 254.016 245.499848 
L 255.8016 256.111889 
L 257.5872 275.795778 
L 259.3728 286.523827 
L 261.1584 277.445153 
L 262.944 256.620366 
L 264.7296 241.560824 
L 266.5152 239.234636 
L 268.3008 240.224394 
L 270.0864 232.363941 
L 271.872 215.667169 
L 273.6576 206.429351 
L 275.4432 218.160953 
L 277.2288 239.78153 
L 279.0144 253.49144 
L 280.8 259.730858 
L 282.5856 264.292719 
L 284.3712 266.07164 
L 286.1568 266.768858 
L 287.9424 272.467359 
L 289.728 283.170754 
L 291.5136 281.816318 
L 293.2992 247.32187 
L 295.0848 200.633798 
L 296.8704 196.001773 
L 298.656 232.451091 
L 300.4416 249.248045 
L 302.2272 232.019524 
L 304.0128 225.488823 
L 307.584 265.47851 
L 309.3696 264.799612 
L 311.1552 247.596589 
L 312.9408 237.368962 
L 314.7264 246.755139 
L 316.512 258.360656 
L 318.2976 263.682598 
L 320.0832 277.058794 
L 321.8688 286.543671 
L 323.6544 262.870317 
L 325.44 224.432999 
L 327.2256 213.709312 
L 329.0112 225.255887 
L 330.7968 228.815899 
L 332.5824 225.703682 
L 334.368 228.749062 
L 336.1536 235.4425 
L 337.9392 245.363565 
L 339.7248 258.626873 
L 341.5104 263.856553 
L 343.296 259.639579 
L 345.0816 261.444903 
L 346.8672 271.031083 
L 348.6528 271.914707 
L 352.224 248.550901 
L 354.0096 241.816701 
L 355.7952 236.779366 
L 357.5808 235.440793 
L 359.3664 235.7684 
L 361.152 227.403199 
L 362.9376 217.47363 
L 364.7232 228.42372 
L 366.5088 249.728104 
L 368.2944 247.649646 
L 370.08 233.764497 
L 371.8656 245.104237 
L 373.6512 272.61684 
L 375.4368 284.552595 
L 377.2224 277.109112 
L 379.008 262.360707 
L 380.7936 252.048817 
L 382.5792 252.602894 
L 384.3648 254.150755 
L 386.1504 244.937566 
L 387.936 229.725989 
L 389.7216 217.097206 
L 391.5072 213.039093 
L 393.2928 224.737495 
L 395.0784 241.739873 
L 396.864 240.835266 
L 398.6496 230.319522 
L 400.4352 240.106019 
L 402.2208 266.130666 
L 404.0064 280.585354 
L 405.792 278.470728 
L 407.5776 272.414129 
L 409.3632 271.384933 
L 411.1488 277.028779 
L 412.9344 272.737869 
L 412.9344 272.737869 
" style="fill:none;stroke:#1f77b4;stroke-linecap:square;stroke-width:1.5;"/>
   </g>
   <g id="patch_8">
    <path d="M 57.6 307.584 
L 57.6 186.624 
" style="fill:none;stroke:#000000;stroke-linecap:square;stroke-linejoin:miter;stroke-width:0.8;"/>
   </g>
   <g id="patch_9">
    <path d="M 414.72 307.584 
L 414.72 186.624 
" style="fill:none;stroke:#000000;stroke-linecap:square;stroke-linejoin:miter;stroke-width:0.8;"/>
   </g>
   <g id="patch_10">
    <path d="M 57.6 307.584 
L 414.72 307.584 
" style="fill:none;stroke:#000000;stroke-linecap:square;stroke-linejoin:miter;stroke-width:0.8;"/>
   </g>
   <g id="patch_11">
    <path d="M 57.6 186.624 
L 414.72 186.624 
" style="fill:none;stroke:#000000;stroke-linecap:square;stroke-linejoin:miter;stroke-width:0.8;"/>
   </g>
  </g>
 </g>
 <defs>
  <clipPath id="pf68b207913">
   <rect height="120.96" width="357.12" x="57.6" y="41.472"/>
  </clipPath>
  <clipPath id="p79ca80cdde">
   <rect height="120.96" width="357.12" x="57.6" y="186.624"/>
  </clipPath>
 </defs>
</svg>
