<?xml version="1.0" encoding="utf-8" standalone="no"?>
<!DOCTYPE svg PUBLIC "-//W3C//DTD SVG 1.1//EN"
  "http://www.w3.org/Graphics/SVG/1.1/DTD/svg11.dtd">
<!-- Created with matplotlib (https://matplotlib.org/) -->
<svg height="345.6pt" version="1.1" viewBox="0 0 460.8 345.6" width="460.8pt" xmlns="http://www.w3.org/2000/svg" xmlns:xlink="http://www.w3.org/1999/xlink">
 <metadata>
  <rdf:RDF xmlns:cc="http://creativecommons.org/ns#" xmlns:dc="http://purl.org/dc/elements/1.1/" xmlns:rdf="http://www.w3.org/1999/02/22-rdf-syntax-ns#">
   <cc:Work>
    <dc:type rdf:resource="http://purl.org/dc/dcmitype/StillImage"/>
    <dc:date>2022-05-23T04:40:05.925258</dc:date>
    <dc:format>image/svg+xml</dc:format>
    <dc:creator>
     <cc:Agent>
      <dc:title>Matplotlib v3.3.1, https://matplotlib.org/</dc:title>
     </cc:Agent>
    </dc:creator>
   </cc:Work>
  </rdf:RDF>
 </metadata>
 <defs>
  <style type="text/css">*{stroke-linecap:butt;stroke-linejoin:round;}</style>
 </defs>
 <g id="figure_1">
  <g id="patch_1">
   <path d="M 0 345.6 
L 460.8 345.6 
L 460.8 0 
L 0 0 
z
" style="fill:#ffffff;"/>
  </g>
  <g id="axes_1">
   <g id="patch_2">
    <path d="M 57.6 162.432 
L 414.72 162.432 
L 414.72 41.472 
L 57.6 41.472 
z
" style="fill:#ffffff;"/>
   </g>
   <g id="matplotlib.axis_1"/>
   <g id="matplotlib.axis_2"/>
   <g id="line2d_1">
    <path clip-path="url(#p129a21c646)" d="M 57.6 101.952 
L 59.3856 88.529603 
L 61.1712 77.011107 
L 62.9568 69.030356 
L 64.7424 65.71938 
L 66.528 67.547825 
L 68.3136 74.256334 
L 70.0992 84.893339 
L 75.456 123.833849 
L 77.2416 132.98948 
L 79.0272 137.742595 
L 80.8128 137.418988 
L 82.5984 132.064561 
L 84.384 122.438814 
L 86.1696 109.907113 
L 89.7408 83.396145 
L 91.5264 73.177331 
L 93.312 67.040064 
L 95.0976 65.854885 
L 96.8832 69.789906 
L 98.6688 78.286964 
L 100.4544 90.140792 
L 104.0256 116.955485 
L 105.8112 128.112817 
L 107.5968 135.559364 
L 109.3824 138.23887 
L 111.168 135.771259 
L 112.9536 128.506552 
L 114.7392 117.475211 
L 118.3104 90.683922 
L 120.096 78.724188 
L 121.8816 70.059207 
L 123.6672 65.918063 
L 125.4528 66.888158 
L 127.2384 72.831888 
L 129.024 82.906165 
L 130.8096 95.682 
L 132.5952 109.347205 
L 134.3808 121.963435 
L 136.1664 131.741141 
L 137.952 137.293402 
L 139.7376 137.832658 
L 141.5232 133.282416 
L 143.3088 124.288107 
L 145.0944 112.125531 
L 148.6656 85.401074 
L 150.4512 74.629928 
L 152.2368 67.734285 
L 154.0224 65.692259 
L 155.808 68.7935 
L 157.5936 76.598113 
L 159.3792 87.999052 
L 162.9504 114.840502 
L 164.736 126.473683 
L 166.5216 134.628583 
L 168.3072 138.148469 
L 170.0928 136.534062 
L 171.8784 130.014357 
L 173.664 119.514144 
L 179.0208 80.529862 
L 180.8064 71.215192 
L 182.592 66.260388 
L 184.3776 66.368266 
L 186.1632 71.523524 
L 187.9488 80.994912 
L 189.7344 93.438962 
L 193.3056 120.01325 
L 195.0912 130.374055 
L 196.8768 136.703329 
L 198.6624 138.103297 
L 200.448 134.375379 
L 202.2336 126.048362 
L 204.0192 114.303394 
L 207.5904 87.471979 
L 209.376 76.191438 
L 211.1616 68.564908 
L 212.9472 65.674174 
L 214.7328 67.929273 
L 216.5184 75.010331 
L 218.304 85.912933 
L 223.6608 124.736799 
L 225.4464 133.567544 
L 227.232 137.913778 
L 229.0176 137.159009 
L 230.8032 131.410297 
L 232.5888 121.483069 
L 234.3744 108.785454 
L 236.16 95.118546 
L 237.9456 82.420931 
L 239.7312 72.493703 
L 241.5168 66.744991 
L 243.3024 65.990222 
L 245.088 70.336456 
L 246.8736 79.167201 
L 248.6592 91.229859 
L 252.2304 117.991067 
L 254.016 128.893669 
L 255.8016 135.974727 
L 257.5872 138.229826 
L 259.3728 135.339092 
L 261.1584 127.712562 
L 262.944 116.432021 
L 266.5152 89.600606 
L 268.3008 77.855638 
L 270.0864 69.528621 
L 271.872 65.800703 
L 273.6576 67.200671 
L 275.4432 73.529945 
L 277.2288 83.89075 
L 282.5856 122.909088 
L 284.3712 132.380476 
L 286.1568 137.535734 
L 287.9424 137.643612 
L 289.728 132.688808 
L 291.5136 123.374138 
L 293.2992 111.020842 
L 296.8704 84.389856 
L 298.656 73.889643 
L 300.4416 67.369938 
L 302.2272 65.755531 
L 304.0128 69.275417 
L 305.7984 77.430317 
L 307.584 89.063498 
L 311.1552 115.904948 
L 312.9408 127.305887 
L 314.7264 135.1105 
L 316.512 138.211741 
L 318.2976 136.169715 
L 320.0832 129.274072 
L 321.8688 118.502926 
L 327.2256 79.615893 
L 329.0112 70.621584 
L 330.7968 66.071342 
L 332.5824 66.610598 
L 334.368 72.162859 
L 336.1536 81.940565 
L 337.9392 94.556795 
L 339.7248 108.222 
L 341.5104 120.997835 
L 343.296 131.072112 
L 345.0816 137.015842 
L 346.8672 137.985937 
L 348.6528 133.844793 
L 350.4384 125.179812 
L 352.224 113.220078 
L 355.7952 86.428789 
L 357.5808 75.397448 
L 359.3664 68.132741 
L 361.152 65.66513 
L 362.9376 68.344636 
L 364.7232 75.791183 
L 366.5088 86.948515 
L 370.08 113.763208 
L 371.8656 125.617036 
L 373.6512 134.114094 
L 375.4368 138.049115 
L 377.2224 136.863936 
L 379.008 130.726669 
L 380.7936 120.507855 
L 382.5792 107.656983 
L 384.3648 93.996887 
L 386.1504 81.465186 
L 387.936 71.839439 
L 389.7216 66.485012 
L 391.5072 66.161405 
L 393.2928 70.91452 
L 395.0784 80.070151 
L 396.864 92.329615 
L 400.4352 119.010661 
L 402.2208 129.647666 
L 404.0064 136.356175 
L 405.792 138.18462 
L 407.5776 134.873644 
L 409.3632 126.892893 
L 411.1488 115.374397 
L 412.9344 101.952 
L 412.9344 101.952 
" style="fill:none;stroke:#1f77b4;stroke-linecap:square;stroke-width:1.5;"/>
   </g>
   <g id="patch_3">
    <path d="M 57.6 162.432 
L 57.6 41.472 
" style="fill:none;stroke:#000000;stroke-linecap:square;stroke-linejoin:miter;stroke-width:0.8;"/>
   </g>
   <g id="patch_4">
    <path d="M 414.72 162.432 
L 414.72 41.472 
" style="fill:none;stroke:#000000;stroke-linecap:square;stroke-linejoin:miter;stroke-width:0.8;"/>
   </g>
   <g id="patch_5">
    <path d="M 57.6 162.432 
L 414.72 162.432 
" style="fill:none;stroke:#000000;stroke-linecap:square;stroke-linejoin:miter;stroke-width:0.8;"/>
   </g>
   <g id="patch_6">
    <path d="M 57.6 41.472 
L 414.72 41.472 
" style="fill:none;stroke:#000000;stroke-linecap:square;stroke-linejoin:miter;stroke-width:0.8;"/>
   </g>
  </g>
  <g id="axes_2">
   <g id="patch_7">
    <path d="M 57.6 307.584 
L 414.72 307.584 
L 414.72 186.624 
L 57.6 186.624 
z
" style="fill:#ffffff;"/>
   </g>
   <g id="matplotlib.axis_3"/>
   <g id="matplotlib.axis_4"/>
   <g id="line2d_2">
    <path clip-path="url(#pce1361109c)" d="M 57.6 247.190333 
L 59.3856 243.517761 
L 62.9568 212.700889 
L 64.7424 207.978663 
L 66.528 214.13755 
L 68.3136 223.880362 
L 70.0992 232.32567 
L 71.8848 243.123903 
L 75.456 279.017695 
L 77.2416 279.263803 
L 79.0272 262.903423 
L 80.8128 254.319515 
L 82.5984 266.07045 
L 84.384 279.121394 
L 86.1696 273.639035 
L 87.9552 254.697687 
L 89.7408 238.764167 
L 91.5264 234.648491 
L 93.312 232.422665 
L 96.8832 186.624 
L 98.6688 186.624 
L 100.4544 214.95629 
L 102.24 259.783918 
L 104.0256 281.313606 
L 105.8112 295.601933 
L 107.5968 307.3559 
L 109.3824 302.426627 
L 112.9536 265.371776 
L 116.5248 231.84314 
L 118.3104 219.447696 
L 120.096 216.100501 
L 121.8816 216.683465 
L 123.6672 216.329444 
L 125.4528 219.111372 
L 127.2384 227.223776 
L 129.024 234.2108 
L 130.8096 238.850653 
L 132.5952 250.791508 
L 134.3808 272.6718 
L 136.1664 289.89713 
L 137.952 287.829102 
L 139.7376 271.702716 
L 141.5232 259.387147 
L 145.0944 253.892142 
L 148.6656 239.314104 
L 150.4512 233.12434 
L 152.2368 224.043907 
L 154.0224 213.886619 
L 155.808 208.937059 
L 157.5936 214.635158 
L 159.3792 231.826135 
L 161.1648 252.301618 
L 162.9504 263.230549 
L 164.736 262.314427 
L 166.5216 261.198359 
L 168.3072 269.907408 
L 170.0928 285.651605 
L 171.8784 293.898224 
L 173.664 279.475059 
L 175.4496 249.507303 
L 177.2352 232.319942 
L 179.0208 234.656997 
L 180.8064 229.744137 
L 182.592 208.471325 
L 184.3776 196.780417 
L 186.1632 205.957622 
L 189.7344 235.534789 
L 191.52 255.57268 
L 193.3056 273.143531 
L 195.0912 281.139974 
L 196.8768 281.702233 
L 198.6624 279.27594 
L 200.448 279.618316 
L 202.2336 278.755038 
L 204.0192 262.10638 
L 205.8048 237.340147 
L 207.5904 229.141898 
L 209.376 230.175837 
L 211.1616 216.743152 
L 212.9472 200.267124 
L 214.7328 203.569725 
L 216.5184 219.571816 
L 220.0896 248.861967 
L 221.8752 264.720085 
L 223.6608 275.926324 
L 225.4464 282.523933 
L 227.232 286.874772 
L 229.0176 284.99883 
L 230.8032 271.203922 
L 232.5888 249.390424 
L 234.3744 234.227151 
L 236.16 232.936881 
L 237.9456 234.540546 
L 239.7312 229.077287 
L 241.5168 222.97864 
L 243.3024 223.683467 
L 245.088 226.296144 
L 246.8736 227.246451 
L 248.6592 233.309571 
L 250.4448 244.761273 
L 252.2304 251.255647 
L 254.016 254.480405 
L 255.8016 267.452798 
L 257.5872 287.888387 
L 259.3728 297.652858 
L 261.1584 286.032007 
L 262.944 261.44704 
L 264.7296 241.942677 
L 266.5152 235.117505 
L 268.3008 232.192273 
L 270.0864 221.556148 
L 271.872 203.616736 
L 273.6576 194.845575 
L 275.4432 208.686935 
L 277.2288 233.761113 
L 279.0144 251.778592 
L 280.8 262.568537 
L 282.5856 271.278415 
L 284.3712 276.214466 
L 286.1568 278.630103 
L 287.9424 284.364562 
L 289.728 293.416356 
L 291.5136 288.95703 
L 293.2992 250.344817 
L 295.0848 199.11019 
L 296.8704 190.147725 
L 298.656 223.096972 
L 300.4416 237.720691 
L 302.2272 219.954034 
L 304.0128 214.596629 
L 307.584 261.182343 
L 309.3696 264.990562 
L 311.1552 252.247571 
L 312.9408 245.820257 
L 316.512 270.447237 
L 318.2976 275.088503 
L 320.0832 286.166152 
L 321.8688 292.060647 
L 323.6544 264.014354 
L 325.44 221.041822 
L 327.2256 206.263943 
L 329.0112 214.812415 
L 330.7968 216.85568 
L 332.5824 213.923214 
L 334.368 218.819348 
L 336.1536 228.772021 
L 337.9392 242.898496 
L 339.7248 260.716873 
L 341.5104 270.205164 
L 343.296 269.346283 
L 345.0816 273.13285 
L 346.8672 283.042395 
L 348.6528 282.545638 
L 350.4384 267.968601 
L 352.224 252.306927 
L 354.0096 241.053376 
L 355.7952 231.604963 
L 357.5808 226.589275 
L 359.3664 224.495314 
L 362.9376 206.271175 
L 364.7232 219.703447 
L 366.5088 244.726942 
L 368.2944 247.076985 
L 370.08 237.701567 
L 371.8656 252.992582 
L 373.6512 283.337538 
L 375.4368 296.584967 
L 377.2224 288.746424 
L 379.008 271.952263 
L 380.7936 258.234102 
L 382.5792 254.504555 
L 384.3648 251.499051 
L 386.1504 238.108627 
L 387.936 219.688469 
L 389.7216 205.274877 
L 391.5072 201.108895 
L 393.2928 214.391668 
L 395.0784 234.445923 
L 396.864 237.627805 
L 398.6496 231.653511 
L 400.4352 245.792239 
L 402.2208 275.362554 
L 404.0064 292.053412 
L 405.792 290.548268 
L 407.5776 283.38801 
L 409.3632 279.698564 
L 411.1488 281.502912 
L 412.9344 272.737869 
L 412.9344 272.737869 
" style="fill:none;stroke:#1f77b4;stroke-linecap:square;stroke-width:1.5;"/>
   </g>
   <g id="patch_8">
    <path d="M 57.6 307.584 
L 57.6 186.624 
" style="fill:none;stroke:#000000;stroke-linecap:square;stroke-linejoin:miter;stroke-width:0.8;"/>
   </g>
   <g id="patch_9">
    <path d="M 414.72 307.584 
L 414.72 186.624 
" style="fill:none;stroke:#000000;stroke-linecap:square;stroke-linejoin:miter;stroke-width:0.8;"/>
   </g>
   <g id="patch_10">
    <path d="M 57.6 307.584 
L 414.72 307.584 
" style="fill:none;stroke:#000000;stroke-linecap:square;stroke-linejoin:miter;stroke-width:0.8;"/>
   </g>
   <g id="patch_11">
    <path d="M 57.6 186.624 
L 414.72 186.624 
" style="fill:none;stroke:#000000;stroke-linecap:square;stroke-linejoin:miter;stroke-width:0.8;"/>
   </g>
  </g>
 </g>
 <defs>
  <clipPath id="p129a21c646">
   <rect height="120.96" width="357.12" x="57.6" y="41.472"/>
  </clipPath>
  <clipPath id="pce1361109c">
   <rect height="120.96" width="357.12" x="57.6" y="186.624"/>
  </clipPath>
 </defs>
</svg>
