<?xml version="1.0" encoding="utf-8" standalone="no"?>
<!DOCTYPE svg PUBLIC "-//W3C//DTD SVG 1.1//EN"
  "http://www.w3.org/Graphics/SVG/1.1/DTD/svg11.dtd">
<!-- Created with matplotlib (https://matplotlib.org/) -->
<svg height="345.6pt" version="1.1" viewBox="0 0 460.8 345.6" width="460.8pt" xmlns="http://www.w3.org/2000/svg" xmlns:xlink="http://www.w3.org/1999/xlink">
 <metadata>
  <rdf:RDF xmlns:cc="http://creativecommons.org/ns#" xmlns:dc="http://purl.org/dc/elements/1.1/" xmlns:rdf="http://www.w3.org/1999/02/22-rdf-syntax-ns#">
   <cc:Work>
    <dc:type rdf:resource="http://purl.org/dc/dcmitype/StillImage"/>
    <dc:date>2022-05-23T04:40:06.002051</dc:date>
    <dc:format>image/svg+xml</dc:format>
    <dc:creator>
     <cc:Agent>
      <dc:title>Matplotlib v3.3.1, https://matplotlib.org/</dc:title>
     </cc:Agent>
    </dc:creator>
   </cc:Work>
  </rdf:RDF>
 </metadata>
 <defs>
  <style type="text/css">*{stroke-linecap:butt;stroke-linejoin:round;}</style>
 </defs>
 <g id="figure_1">
  <g id="patch_1">
   <path d="M 0 345.6 
L 460.8 345.6 
L 460.8 0 
L 0 0 
z
" style="fill:#ffffff;"/>
  </g>
  <g id="axes_1">
   <g id="patch_2">
    <path d="M 57.6 162.432 
L 414.72 162.432 
L 414.72 41.472 
L 57.6 41.472 
z
" style="fill:#ffffff;"/>
   </g>
   <g id="matplotlib.axis_1"/>
   <g id="matplotlib.axis_2"/>
   <g id="line2d_1">
    <path clip-path="url(#pc712f2a844)" d="M 57.6 101.952 
L 59.3856 84.05547 
L 61.1712 68.697476 
L 62.9568 58.056475 
L 64.7424 53.64184 
L 66.528 56.079766 
L 68.3136 65.024446 
L 70.0992 79.207119 
L 75.456 131.127799 
L 77.2416 143.335306 
L 79.0272 149.672793 
L 80.8128 149.241317 
L 82.5984 142.102082 
L 84.384 129.267752 
L 86.1696 112.558817 
L 89.7408 77.21086 
L 91.5264 63.585775 
L 93.312 55.402752 
L 95.0976 53.822514 
L 96.8832 59.069209 
L 98.6688 70.398619 
L 100.4544 86.203723 
L 104.0256 121.956647 
L 105.8112 136.833089 
L 107.5968 146.761818 
L 109.3824 150.334493 
L 111.168 147.044346 
L 112.9536 137.358069 
L 114.7392 122.649614 
L 118.3104 86.927896 
L 120.096 70.981584 
L 121.8816 59.428276 
L 123.6672 53.906751 
L 125.4528 55.200211 
L 127.2384 63.125184 
L 129.024 76.557553 
L 130.8096 93.592 
L 132.5952 111.812273 
L 134.3808 128.633914 
L 136.1664 141.670855 
L 137.952 149.07387 
L 139.7376 149.792877 
L 141.5232 143.725888 
L 143.3088 131.733476 
L 145.0944 115.516707 
L 148.6656 79.884098 
L 150.4512 65.52257 
L 152.2368 56.32838 
L 154.0224 53.605678 
L 155.808 57.740667 
L 157.5936 68.146818 
L 159.3792 83.34807 
L 162.9504 119.136669 
L 164.736 134.647577 
L 166.5216 145.520778 
L 168.3072 150.213958 
L 170.0928 148.061415 
L 171.8784 139.368476 
L 173.664 125.368192 
L 179.0208 73.389149 
L 180.8064 60.969589 
L 182.592 54.363184 
L 184.3776 54.507022 
L 186.1632 61.380698 
L 187.9488 74.009217 
L 189.7344 90.601283 
L 193.3056 126.033667 
L 195.0912 139.848073 
L 196.8768 148.287105 
L 198.6624 150.153729 
L 200.448 145.183172 
L 202.2336 134.080483 
L 204.0192 118.420525 
L 207.5904 82.645305 
L 209.376 67.604584 
L 211.1616 57.435877 
L 212.9472 53.581565 
L 214.7328 56.588364 
L 216.5184 66.029774 
L 218.304 80.566577 
L 223.6608 132.331732 
L 225.4464 144.106059 
L 227.232 149.901038 
L 229.0176 148.894679 
L 230.8032 141.22973 
L 232.5888 127.993425 
L 234.3744 111.063272 
L 236.16 92.840728 
L 237.9456 75.910575 
L 239.7312 62.67427 
L 241.5168 55.009321 
L 243.3024 54.002962 
L 245.088 59.797941 
L 246.8736 71.572268 
L 248.6592 87.655813 
L 252.2304 123.337423 
L 254.016 137.874226 
L 255.8016 147.315636 
L 257.5872 150.322435 
L 259.3728 146.468123 
L 261.1584 136.299416 
L 262.944 121.258695 
L 266.5152 85.483475 
L 268.3008 69.823517 
L 270.0864 58.720828 
L 271.872 53.750271 
L 273.6576 55.616895 
L 275.4432 64.055927 
L 277.2288 77.870333 
L 282.5856 129.894783 
L 284.3712 142.523302 
L 286.1568 149.396978 
L 287.9424 149.540816 
L 289.728 142.934411 
L 291.5136 130.514851 
L 293.2992 114.043789 
L 296.8704 78.535808 
L 298.656 64.535524 
L 300.4416 55.842585 
L 302.2272 53.690042 
L 304.0128 58.383222 
L 305.7984 69.256423 
L 307.584 84.767331 
L 311.1552 120.55593 
L 312.9408 135.757182 
L 314.7264 146.163333 
L 316.512 150.298322 
L 318.2976 147.57562 
L 320.0832 138.38143 
L 321.8688 124.019902 
L 327.2256 72.170524 
L 329.0112 60.178112 
L 330.7968 54.111123 
L 332.5824 54.83013 
L 334.368 62.233145 
L 336.1536 75.270086 
L 337.9392 92.091727 
L 339.7248 110.312 
L 341.5104 127.346447 
L 343.296 140.778816 
L 345.0816 148.703789 
L 346.8672 149.997249 
L 348.6528 144.475724 
L 350.4384 132.922416 
L 352.224 116.976104 
L 355.7952 81.254386 
L 357.5808 66.545931 
L 359.3664 56.859654 
L 361.152 53.569507 
L 362.9376 57.142182 
L 364.7232 67.070911 
L 366.5088 81.947353 
L 370.08 117.700277 
L 371.8656 133.505381 
L 373.6512 144.834791 
L 375.4368 150.081486 
L 377.2224 148.501248 
L 379.008 140.318225 
L 380.7936 126.69314 
L 382.5792 109.558644 
L 384.3648 91.345183 
L 386.1504 74.636248 
L 387.936 61.801918 
L 389.7216 54.662683 
L 391.5072 54.231207 
L 393.2928 60.568694 
L 395.0784 72.776201 
L 396.864 89.122153 
L 400.4352 124.696881 
L 402.2208 138.879554 
L 404.0064 147.824234 
L 405.792 150.26216 
L 407.5776 145.847525 
L 409.3632 135.206524 
L 411.1488 119.84853 
L 412.9344 101.952 
L 412.9344 101.952 
" style="fill:none;stroke:#1f77b4;stroke-linecap:square;stroke-width:1.5;"/>
   </g>
   <g id="patch_3">
    <path d="M 57.6 162.432 
L 57.6 41.472 
" style="fill:none;stroke:#000000;stroke-linecap:square;stroke-linejoin:miter;stroke-width:0.8;"/>
   </g>
   <g id="patch_4">
    <path d="M 414.72 162.432 
L 414.72 41.472 
" style="fill:none;stroke:#000000;stroke-linecap:square;stroke-linejoin:miter;stroke-width:0.8;"/>
   </g>
   <g id="patch_5">
    <path d="M 57.6 162.432 
L 414.72 162.432 
" style="fill:none;stroke:#000000;stroke-linecap:square;stroke-linejoin:miter;stroke-width:0.8;"/>
   </g>
   <g id="patch_6">
    <path d="M 57.6 41.472 
L 414.72 41.472 
" style="fill:none;stroke:#000000;stroke-linecap:square;stroke-linejoin:miter;stroke-width:0.8;"/>
   </g>
  </g>
  <g id="axes_2">
   <g id="patch_7">
    <path d="M 57.6 307.584 
L 414.72 307.584 
L 414.72 186.624 
L 57.6 186.624 
z
" style="fill:#ffffff;"/>
   </g>
   <g id="matplotlib.axis_3"/>
   <g id="matplotlib.axis_4"/>
   <g id="line2d_2">
    <path clip-path="url(#p21de6cf035)" d="M 57.6 247.190333 
L 59.3856 239.043629 
L 62.9568 201.727008 
L 64.7424 195.901123 
L 66.528 202.669491 
L 70.0992 226.63945 
L 71.8848 241.789914 
L 75.456 286.311645 
L 77.2416 289.60963 
L 79.0272 274.833621 
L 80.8128 266.141844 
L 84.384 285.950332 
L 86.1696 276.290739 
L 87.9552 252.796026 
L 89.7408 232.578882 
L 91.5264 225.056934 
L 93.312 220.785353 
L 95.0976 198.045575 
L 96.8832 186.624 
L 98.6688 186.624 
L 100.4544 211.019221 
L 102.24 260.356578 
L 104.0256 286.314768 
L 105.8112 304.322205 
L 107.5968 307.584 
L 109.3824 307.584 
L 111.168 295.059134 
L 116.5248 232.606465 
L 118.3104 215.69167 
L 120.096 208.357897 
L 121.8816 206.052534 
L 123.6672 204.318132 
L 125.4528 207.423424 
L 129.024 227.862188 
L 130.8096 236.760653 
L 132.5952 253.256576 
L 134.3808 279.342279 
L 136.1664 299.826844 
L 137.952 299.609569 
L 139.7376 283.662935 
L 141.5232 269.830619 
L 143.3088 264.137032 
L 145.0944 257.283319 
L 148.6656 233.797128 
L 150.4512 224.016983 
L 154.0224 201.800038 
L 155.808 197.884226 
L 157.5936 206.183862 
L 159.3792 227.175152 
L 161.1648 252.110668 
L 162.9504 267.526716 
L 164.736 270.488321 
L 166.5216 272.090553 
L 168.3072 281.972898 
L 170.0928 297.178958 
L 171.8784 303.252343 
L 173.664 285.329107 
L 175.4496 251.030911 
L 177.2352 229.296995 
L 179.0208 227.516284 
L 180.8064 219.498534 
L 182.592 196.574121 
L 184.3776 186.624 
L 186.1632 195.814796 
L 187.9488 213.478231 
L 189.7344 232.69711 
L 191.52 257.285528 
L 193.3056 279.163948 
L 195.0912 290.613993 
L 196.8768 293.286009 
L 198.6624 291.326373 
L 200.448 290.426109 
L 202.2336 286.787159 
L 204.0192 266.223511 
L 205.8048 236.958294 
L 207.5904 224.315225 
L 209.376 221.588983 
L 211.1616 205.614122 
L 212.9472 188.174515 
L 214.7328 192.228816 
L 220.0896 247.908167 
L 221.8752 268.294132 
L 223.6608 283.521257 
L 225.4464 293.062448 
L 227.232 298.862031 
L 229.0176 296.7345 
L 230.8032 281.023354 
L 232.5888 255.900781 
L 234.3744 236.504968 
L 236.16 230.659064 
L 237.9456 228.030189 
L 239.7312 219.257855 
L 241.5168 211.242971 
L 243.3024 211.696208 
L 246.8736 219.651518 
L 248.6592 229.735524 
L 250.4448 245.715074 
L 252.2304 256.602002 
L 254.016 263.460961 
L 255.8016 278.793706 
L 257.5872 299.980995 
L 259.3728 307.584 
L 261.1584 294.61886 
L 262.944 266.273713 
L 264.7296 242.32453 
L 266.5152 231.000374 
L 268.3008 224.160152 
L 270.0864 210.748355 
L 271.872 191.566304 
L 273.6576 186.624 
L 275.4432 199.212917 
L 277.2288 227.740697 
L 279.0144 250.065743 
L 280.8 265.406216 
L 282.5856 278.264111 
L 284.3712 286.357291 
L 286.1568 290.491347 
L 287.9424 296.261766 
L 289.728 303.661959 
L 291.5136 296.097743 
L 293.2992 253.367764 
L 295.0848 197.586581 
L 296.8704 186.624 
L 298.656 213.742853 
L 300.4416 226.193338 
L 302.2272 207.888545 
L 304.0128 203.704434 
L 305.7984 229.122947 
L 307.584 256.886175 
L 309.3696 265.181512 
L 311.1552 256.898554 
L 312.9408 254.271553 
L 314.7264 268.860805 
L 316.512 282.533817 
L 318.2976 286.494408 
L 320.0832 295.273509 
L 321.8688 297.577622 
L 323.6544 265.158392 
L 325.44 217.650645 
L 327.2256 198.818574 
L 329.0112 204.368943 
L 330.7968 204.895461 
L 332.5824 202.142747 
L 334.368 208.889634 
L 336.1536 222.101543 
L 337.9392 240.433428 
L 339.7248 262.806873 
L 341.5104 276.553776 
L 343.296 279.052987 
L 345.0816 284.820797 
L 346.8672 295.053708 
L 348.6528 293.176569 
L 350.4384 275.711205 
L 352.224 256.062953 
L 354.0096 240.29005 
L 355.7952 226.430559 
L 357.5808 217.737758 
L 359.3664 213.222227 
L 361.152 203.211952 
L 362.9376 195.068721 
L 364.7232 210.983175 
L 366.5088 239.72578 
L 368.2944 246.504324 
L 370.08 241.638636 
L 371.8656 260.880928 
L 373.6512 294.058236 
L 375.4368 307.584 
L 377.2224 300.383736 
L 379.008 281.543819 
L 380.7936 264.419387 
L 384.3648 248.847346 
L 386.1504 231.279689 
L 387.936 209.650948 
L 389.7216 193.452548 
L 391.5072 189.178697 
L 393.2928 204.045842 
L 395.0784 227.151974 
L 396.864 234.420343 
L 398.6496 232.9875 
L 400.4352 251.478459 
L 402.2208 284.594443 
L 404.0064 303.521471 
L 405.792 302.625808 
L 407.5776 294.361891 
L 409.3632 288.012194 
L 411.1488 285.977044 
L 412.9344 272.737869 
L 412.9344 272.737869 
" style="fill:none;stroke:#1f77b4;stroke-linecap:square;stroke-width:1.5;"/>
   </g>
   <g id="patch_8">
    <path d="M 57.6 307.584 
L 57.6 186.624 
" style="fill:none;stroke:#000000;stroke-linecap:square;stroke-linejoin:miter;stroke-width:0.8;"/>
   </g>
   <g id="patch_9">
    <path d="M 414.72 307.584 
L 414.72 186.624 
" style="fill:none;stroke:#000000;stroke-linecap:square;stroke-linejoin:miter;stroke-width:0.8;"/>
   </g>
   <g id="patch_10">
    <path d="M 57.6 307.584 
L 414.72 307.584 
" style="fill:none;stroke:#000000;stroke-linecap:square;stroke-linejoin:miter;stroke-width:0.8;"/>
   </g>
   <g id="patch_11">
    <path d="M 57.6 186.624 
L 414.72 186.624 
" style="fill:none;stroke:#000000;stroke-linecap:square;stroke-linejoin:miter;stroke-width:0.8;"/>
   </g>
  </g>
 </g>
 <defs>
  <clipPath id="pc712f2a844">
   <rect height="120.96" width="357.12" x="57.6" y="41.472"/>
  </clipPath>
  <clipPath id="p21de6cf035">
   <rect height="120.96" width="357.12" x="57.6" y="186.624"/>
  </clipPath>
 </defs>
</svg>
