<?xml version="1.0" encoding="utf-8" standalone="no"?>
<!DOCTYPE svg PUBLIC "-//W3C//DTD SVG 1.1//EN"
  "http://www.w3.org/Graphics/SVG/1.1/DTD/svg11.dtd">
<!-- Created with matplotlib (https://matplotlib.org/) -->
<svg height="345.6pt" version="1.1" viewBox="0 0 460.8 345.6" width="460.8pt" xmlns="http://www.w3.org/2000/svg" xmlns:xlink="http://www.w3.org/1999/xlink">
 <metadata>
  <rdf:RDF xmlns:cc="http://creativecommons.org/ns#" xmlns:dc="http://purl.org/dc/elements/1.1/" xmlns:rdf="http://www.w3.org/1999/02/22-rdf-syntax-ns#">
   <cc:Work>
    <dc:type rdf:resource="http://purl.org/dc/dcmitype/StillImage"/>
    <dc:date>2022-05-23T04:40:06.074856</dc:date>
    <dc:format>image/svg+xml</dc:format>
    <dc:creator>
     <cc:Agent>
      <dc:title>Matplotlib v3.3.1, https://matplotlib.org/</dc:title>
     </cc:Agent>
    </dc:creator>
   </cc:Work>
  </rdf:RDF>
 </metadata>
 <defs>
  <style type="text/css">*{stroke-linecap:butt;stroke-linejoin:round;}</style>
 </defs>
 <g id="figure_1">
  <g id="patch_1">
   <path d="M 0 345.6 
L 460.8 345.6 
L 460.8 0 
L 0 0 
z
" style="fill:#ffffff;"/>
  </g>
  <g id="axes_1">
   <g id="patch_2">
    <path d="M 57.6 162.432 
L 414.72 162.432 
L 414.72 41.472 
L 57.6 41.472 
z
" style="fill:#ffffff;"/>
   </g>
   <g id="matplotlib.axis_1"/>
   <g id="matplotlib.axis_2"/>
   <g id="line2d_1">
    <path clip-path="url(#pa9d915373d)" d="M 57.6 101.952 
L 59.3856 79.581338 
L 61.1712 60.383845 
L 62.9568 47.082593 
L 64.7424 41.5643 
L 66.528 44.611708 
L 68.3136 55.792557 
L 70.0992 73.520899 
L 75.456 138.421749 
L 77.2416 153.681133 
L 79.0272 161.602991 
L 80.8128 161.063646 
L 82.5984 152.139602 
L 84.384 136.096691 
L 86.1696 115.210521 
L 89.7408 71.025575 
L 91.5264 53.994219 
L 93.312 43.76544 
L 95.0976 41.790142 
L 96.8832 48.348511 
L 98.6688 62.510274 
L 100.4544 82.266654 
L 104.0256 126.957809 
L 105.8112 145.553361 
L 107.5968 157.964273 
L 109.3824 162.430116 
L 111.168 158.317432 
L 112.9536 146.209587 
L 114.7392 127.824018 
L 118.3104 83.171869 
L 120.096 63.23898 
L 121.8816 48.797345 
L 123.6672 41.895439 
L 125.4528 43.512263 
L 127.2384 53.41848 
L 129.024 70.208941 
L 130.8096 91.502 
L 132.5952 114.277341 
L 134.3808 135.304392 
L 136.1664 151.600569 
L 137.952 160.854337 
L 139.7376 161.753096 
L 141.5232 154.16936 
L 143.3088 139.178846 
L 145.0944 118.907884 
L 148.6656 74.367123 
L 150.4512 56.415213 
L 152.2368 44.922475 
L 154.0224 41.519098 
L 155.808 46.687833 
L 157.5936 59.695522 
L 159.3792 78.697087 
L 162.9504 123.432836 
L 164.736 142.821472 
L 166.5216 156.412972 
L 168.3072 162.279448 
L 170.0928 159.588769 
L 171.8784 148.722595 
L 173.664 131.22224 
L 179.0208 66.248437 
L 180.8064 50.723986 
L 182.592 42.46598 
L 184.3776 42.645777 
L 186.1632 51.237873 
L 187.9488 67.023521 
L 189.7344 87.763604 
L 193.3056 132.054083 
L 195.0912 149.322091 
L 196.8768 159.870882 
L 198.6624 162.204161 
L 200.448 155.990964 
L 202.2336 142.112604 
L 204.0192 122.537656 
L 207.5904 77.818632 
L 209.376 59.01773 
L 211.1616 46.306846 
L 212.9472 41.488957 
L 214.7328 45.247455 
L 216.5184 57.049218 
L 218.304 75.220222 
L 223.6608 139.926665 
L 225.4464 154.644574 
L 227.232 161.888297 
L 229.0176 160.630349 
L 230.8032 151.049162 
L 232.5888 134.503782 
L 234.3744 113.34109 
L 236.16 90.56291 
L 237.9456 69.400218 
L 239.7312 52.854838 
L 241.5168 43.273651 
L 243.3024 42.015703 
L 245.088 49.259426 
L 246.8736 63.977335 
L 248.6592 84.081766 
L 252.2304 128.683778 
L 254.016 146.854782 
L 255.8016 158.656545 
L 257.5872 162.415043 
L 259.3728 157.597154 
L 261.1584 144.88627 
L 262.944 126.085368 
L 266.5152 81.366344 
L 268.3008 61.791396 
L 270.0864 47.913036 
L 271.872 41.699839 
L 273.6576 44.033118 
L 275.4432 54.581909 
L 277.2288 71.849917 
L 282.5856 136.880479 
L 284.3712 152.666127 
L 286.1568 161.258223 
L 287.9424 161.43802 
L 289.728 153.180014 
L 291.5136 137.655563 
L 293.2992 117.066736 
L 296.8704 72.68176 
L 298.656 55.181405 
L 300.4416 44.315231 
L 302.2272 41.624552 
L 304.0128 47.491028 
L 305.7984 61.082528 
L 307.584 80.471164 
L 311.1552 125.206913 
L 312.9408 144.208478 
L 314.7264 157.216167 
L 316.512 162.384902 
L 318.2976 158.981525 
L 320.0832 147.488787 
L 321.8688 129.536877 
L 327.2256 64.725154 
L 329.0112 49.73464 
L 330.7968 42.150904 
L 332.5824 43.049663 
L 334.368 52.303431 
L 336.1536 68.599608 
L 337.9392 89.626659 
L 339.7248 112.402 
L 341.5104 133.695059 
L 343.296 150.48552 
L 345.0816 160.391737 
L 346.8672 162.008561 
L 348.6528 155.106655 
L 350.4384 140.66502 
L 352.224 120.732131 
L 355.7952 76.079982 
L 357.5808 57.694413 
L 359.3664 45.586568 
L 361.152 41.473884 
L 362.9376 45.939727 
L 364.7232 58.350639 
L 366.5088 76.946191 
L 370.08 121.637346 
L 371.8656 141.393726 
L 373.6512 155.555489 
L 375.4368 162.113858 
L 377.2224 160.13856 
L 379.008 149.909781 
L 380.7936 132.878425 
L 382.5792 111.460305 
L 384.3648 88.693479 
L 386.1504 67.807309 
L 387.936 51.764398 
L 389.7216 42.840354 
L 391.5072 42.301009 
L 393.2928 50.222867 
L 395.0784 65.482251 
L 396.864 85.914691 
L 400.4352 130.383101 
L 402.2208 148.111443 
L 404.0064 159.292292 
L 405.792 162.3397 
L 407.5776 156.821407 
L 409.3632 143.520155 
L 411.1488 124.322662 
L 412.9344 101.952 
L 412.9344 101.952 
" style="fill:none;stroke:#1f77b4;stroke-linecap:square;stroke-width:1.5;"/>
   </g>
   <g id="patch_3">
    <path d="M 57.6 162.432 
L 57.6 41.472 
" style="fill:none;stroke:#000000;stroke-linecap:square;stroke-linejoin:miter;stroke-width:0.8;"/>
   </g>
   <g id="patch_4">
    <path d="M 414.72 162.432 
L 414.72 41.472 
" style="fill:none;stroke:#000000;stroke-linecap:square;stroke-linejoin:miter;stroke-width:0.8;"/>
   </g>
   <g id="patch_5">
    <path d="M 57.6 162.432 
L 414.72 162.432 
" style="fill:none;stroke:#000000;stroke-linecap:square;stroke-linejoin:miter;stroke-width:0.8;"/>
   </g>
   <g id="patch_6">
    <path d="M 57.6 41.472 
L 414.72 41.472 
" style="fill:none;stroke:#000000;stroke-linecap:square;stroke-linejoin:miter;stroke-width:0.8;"/>
   </g>
  </g>
  <g id="axes_2">
   <g id="patch_7">
    <path d="M 57.6 307.584 
L 414.72 307.584 
L 414.72 186.624 
L 57.6 186.624 
z
" style="fill:#ffffff;"/>
   </g>
   <g id="matplotlib.axis_3"/>
   <g id="matplotlib.axis_4"/>
   <g id="line2d_2">
    <path clip-path="url(#pd1a5d05571)" d="M 57.6 247.190333 
L 59.3856 234.569496 
L 61.1712 211.619414 
L 62.9568 190.753126 
L 64.7424 186.624 
L 66.528 191.201433 
L 68.3136 205.416585 
L 70.0992 220.95323 
L 71.8848 240.455925 
L 75.456 293.605594 
L 77.2416 299.955456 
L 79.0272 286.763819 
L 80.8128 277.964173 
L 82.5984 286.14549 
L 84.384 292.77927 
L 86.1696 278.942443 
L 87.9552 250.894365 
L 89.7408 226.393597 
L 91.5264 215.465378 
L 93.312 209.148041 
L 95.0976 186.624 
L 98.6688 186.624 
L 100.4544 207.082151 
L 102.24 260.929239 
L 104.0256 291.31593 
L 105.8112 307.584 
L 109.3824 307.584 
L 111.168 306.332221 
L 114.7392 259.25144 
L 116.5248 233.369791 
L 118.3104 211.935644 
L 120.096 200.615293 
L 121.8816 195.421603 
L 123.6672 192.306819 
L 125.4528 195.735477 
L 127.2384 207.810369 
L 130.8096 234.670653 
L 132.5952 255.721645 
L 134.3808 286.012757 
L 136.1664 307.584 
L 137.952 307.584 
L 139.7376 295.623155 
L 141.5232 280.274091 
L 143.3088 271.582402 
L 145.0944 260.674496 
L 148.6656 228.280153 
L 152.2368 201.232097 
L 154.0224 189.713458 
L 155.808 186.831393 
L 157.5936 197.732567 
L 159.3792 222.52417 
L 161.1648 251.919718 
L 162.9504 271.822883 
L 164.736 278.662215 
L 166.5216 282.982748 
L 168.3072 294.038387 
L 170.0928 307.584 
L 171.8784 307.584 
L 173.664 291.183154 
L 175.4496 252.55452 
L 177.2352 226.274047 
L 179.0208 220.375572 
L 180.8064 209.252932 
L 182.592 186.624 
L 186.1632 186.624 
L 187.9488 206.492535 
L 189.7344 229.85943 
L 191.52 258.998377 
L 193.3056 285.184365 
L 195.0912 300.088011 
L 196.8768 304.869785 
L 198.6624 303.376805 
L 200.448 301.233901 
L 202.2336 294.81928 
L 204.0192 270.340642 
L 205.8048 236.576441 
L 207.5904 219.488551 
L 209.376 213.002129 
L 211.1616 194.485091 
L 212.9472 186.624 
L 214.7328 186.624 
L 216.5184 201.610703 
L 218.304 223.375444 
L 221.8752 271.868178 
L 223.6608 291.11619 
L 225.4464 303.600963 
L 227.232 307.584 
L 229.0176 307.584 
L 230.8032 290.842787 
L 232.5888 262.411137 
L 234.3744 238.782786 
L 236.16 228.381246 
L 237.9456 221.519833 
L 239.7312 209.438422 
L 241.5168 199.507301 
L 243.3024 199.708949 
L 245.088 205.219114 
L 246.8736 212.056585 
L 248.6592 226.161477 
L 250.4448 246.668874 
L 252.2304 261.948358 
L 254.016 272.441518 
L 257.5872 307.584 
L 259.3728 307.584 
L 261.1584 303.205714 
L 262.944 271.100387 
L 264.7296 242.706383 
L 266.5152 226.883243 
L 268.3008 216.128032 
L 270.0864 199.940562 
L 271.872 186.624 
L 273.6576 186.624 
L 275.4432 189.738899 
L 277.2288 221.72028 
L 279.0144 248.352895 
L 280.8 268.243896 
L 282.5856 285.249807 
L 284.3712 296.500117 
L 286.1568 302.352592 
L 287.9424 307.584 
L 289.728 307.584 
L 291.5136 303.238456 
L 293.2992 256.390711 
L 295.0848 196.062972 
L 296.8704 186.624 
L 298.656 204.388734 
L 300.4416 214.665984 
L 302.2272 195.823055 
L 304.0128 192.81224 
L 305.7984 220.949053 
L 307.584 252.590008 
L 309.3696 265.372463 
L 311.1552 261.549537 
L 312.9408 262.722848 
L 314.7264 279.913639 
L 316.512 294.620398 
L 318.2976 297.900313 
L 320.0832 304.380866 
L 321.8688 303.094598 
L 323.6544 266.302429 
L 325.44 214.259468 
L 327.2256 191.373205 
L 329.0112 193.925471 
L 330.7968 192.935241 
L 332.5824 190.362279 
L 334.368 198.95992 
L 336.1536 215.431064 
L 337.9392 237.96836 
L 339.7248 264.896873 
L 341.5104 282.902388 
L 343.296 288.759691 
L 345.0816 296.508744 
L 346.8672 307.06502 
L 348.6528 303.8075 
L 350.4384 283.453809 
L 352.224 259.818979 
L 354.0096 239.526724 
L 355.7952 221.256156 
L 357.5808 208.886241 
L 359.3664 201.949141 
L 361.152 191.116329 
L 362.9376 186.624 
L 364.7232 202.262903 
L 366.5088 234.724619 
L 368.2944 245.931663 
L 370.08 245.575705 
L 371.8656 268.769273 
L 373.6512 304.778934 
L 375.4368 307.584 
L 377.2224 307.584 
L 379.008 291.135376 
L 380.7936 270.604672 
L 384.3648 246.195642 
L 386.1504 224.450751 
L 387.936 199.613428 
L 389.7216 186.624 
L 391.5072 186.624 
L 393.2928 193.700015 
L 395.0784 219.858024 
L 396.864 231.212881 
L 398.6496 234.321489 
L 400.4352 257.16468 
L 402.2208 293.826331 
L 404.0064 307.584 
L 405.792 307.584 
L 407.5776 305.335773 
L 409.3632 296.325825 
L 411.1488 290.451176 
L 412.9344 272.737869 
L 412.9344 272.737869 
" style="fill:none;stroke:#1f77b4;stroke-linecap:square;stroke-width:1.5;"/>
   </g>
   <g id="patch_8">
    <path d="M 57.6 307.584 
L 57.6 186.624 
" style="fill:none;stroke:#000000;stroke-linecap:square;stroke-linejoin:miter;stroke-width:0.8;"/>
   </g>
   <g id="patch_9">
    <path d="M 414.72 307.584 
L 414.72 186.624 
" style="fill:none;stroke:#000000;stroke-linecap:square;stroke-linejoin:miter;stroke-width:0.8;"/>
   </g>
   <g id="patch_10">
    <path d="M 57.6 307.584 
L 414.72 307.584 
" style="fill:none;stroke:#000000;stroke-linecap:square;stroke-linejoin:miter;stroke-width:0.8;"/>
   </g>
   <g id="patch_11">
    <path d="M 57.6 186.624 
L 414.72 186.624 
" style="fill:none;stroke:#000000;stroke-linecap:square;stroke-linejoin:miter;stroke-width:0.8;"/>
   </g>
  </g>
 </g>
 <defs>
  <clipPath id="pa9d915373d">
   <rect height="120.96" width="357.12" x="57.6" y="41.472"/>
  </clipPath>
  <clipPath id="pd1a5d05571">
   <rect height="120.96" width="357.12" x="57.6" y="186.624"/>
  </clipPath>
 </defs>
</svg>
